<svg width="35" height="42" viewBox="0 0 35 42" fill="none" xmlns="http://www.w3.org/2000/svg">
<path d="M32.5658 9.6303L24.4432 1.50766C23.966 1.02815 23.3985 0.648015 22.7735 0.389233C22.1485 0.130452 21.4783 -0.00183693 20.8019 1.92659e-05H7.13207C5.24053 1.92659e-05 3.42646 0.751432 2.08894 2.08895C0.751413 3.42648 0 5.24055 0 7.13209V34.8679C0 35.8045 0.184476 36.7319 0.542896 37.5973C0.901316 38.4626 1.42666 39.2488 2.08894 39.9111C2.75121 40.5733 3.53744 41.0987 4.40275 41.4571C5.26805 41.8155 6.19547 42 7.13207 42H26.9434C27.88 42 28.8074 41.8155 29.6727 41.4571C30.538 41.0987 31.3242 40.5733 31.9865 39.9111C32.6488 39.2488 33.1741 38.4626 33.5326 37.5973C33.891 36.7319 34.0755 35.8045 34.0755 34.8679V13.2736C34.0774 12.5966 33.945 11.926 33.6859 11.3006C33.4267 10.6752 33.046 10.1075 32.5658 9.6303ZM31.6981 34.8679C31.6981 36.129 31.1972 37.3383 30.3055 38.23C29.4138 39.1217 28.2044 39.6226 26.9434 39.6226H7.13207C5.87104 39.6226 4.66166 39.1217 3.76998 38.23C2.8783 37.3383 2.37736 36.129 2.37736 34.8679V7.13209C2.37736 5.87106 2.8783 4.66168 3.76998 3.77C4.66166 2.87832 5.87104 2.37738 7.13207 2.37738H20.8019C21.1661 2.37735 21.5268 2.44907 21.8633 2.58844C22.1998 2.72781 22.5056 2.9321 22.7632 3.18964L30.8858 11.3123C31.404 11.8338 31.6958 12.5385 31.6981 13.2736V34.8679ZM10.2068 19.3418V22.6404H8.59613C8.28087 22.6404 7.97852 22.7656 7.7556 22.9885C7.53268 23.2115 7.40745 23.5138 7.40745 23.8291C7.40745 24.1443 7.53268 24.4467 7.7556 24.6696C7.97852 24.8925 8.28087 25.0177 8.59613 25.0177H10.2068V26.0816C10.2068 26.3969 10.332 26.6992 10.5549 26.9221C10.7779 27.1451 11.0802 27.2703 11.3955 27.2703C11.7107 27.2703 12.0131 27.1451 12.236 26.9221C12.4589 26.6992 12.5841 26.3969 12.5841 26.0816V25.0118C13.634 24.9885 14.633 24.555 15.3673 23.8043C16.1015 23.0536 16.5127 22.0452 16.5127 20.9951C16.5127 19.9449 16.1015 18.9366 15.3673 18.1858C14.633 17.4351 13.634 17.0016 12.5841 16.9783V13.6698H14.282C14.5972 13.6698 14.8996 13.5446 15.1225 13.3217C15.3454 13.0987 15.4707 12.7964 15.4707 12.4811C15.4707 12.1659 15.3454 11.8635 15.1225 11.6406C14.8996 11.4177 14.5972 11.2925 14.282 11.2925H12.5841V10.2286C12.5841 9.91334 12.4589 9.611 12.236 9.38808C12.0131 9.16516 11.7107 9.03992 11.3955 9.03992C11.0802 9.03992 10.7779 9.16516 10.5549 9.38808C10.332 9.611 10.2068 9.91334 10.2068 10.2286V11.2925C9.15588 11.3158 8.15588 11.7497 7.42089 12.5011C6.6859 13.2526 6.27435 14.262 6.27435 15.3132C6.27435 16.3643 6.6859 17.3737 7.42089 18.1252C8.15588 18.8767 9.15588 19.3105 10.2068 19.3339V19.3418ZM12.5841 19.3577C13.0181 19.3577 13.4344 19.5301 13.7413 19.8369C14.0482 20.1438 14.2206 20.5601 14.2206 20.9941C14.2206 21.4281 14.0482 21.8443 13.7413 22.1512C13.4344 22.4581 13.0181 22.6305 12.5841 22.6305V19.3577ZM10.2068 13.6698V16.9605C9.77173 16.9605 9.3545 16.7877 9.04687 16.48C8.73923 16.1724 8.56641 15.7552 8.56641 15.3201C8.56641 14.8851 8.73923 14.4678 9.04687 14.1602C9.3545 13.8526 9.77173 13.6797 10.2068 13.6797V13.6698ZM19.6667 21.6954C19.6667 21.3801 19.7919 21.0778 20.0148 20.8549C20.2378 20.6319 20.5401 20.5067 20.8554 20.5067H25.3743C25.5304 20.5067 25.685 20.5375 25.8292 20.5972C25.9734 20.6569 26.1045 20.7445 26.2148 20.8549C26.3252 20.9652 26.4128 21.0963 26.4725 21.2405C26.5323 21.3847 26.563 21.5393 26.563 21.6954C26.563 21.8515 26.5323 22.0061 26.4725 22.1503C26.4128 22.2945 26.3252 22.4255 26.2148 22.5359C26.1045 22.6463 25.9734 22.7338 25.8292 22.7936C25.685 22.8533 25.5304 22.8841 25.3743 22.8841H20.8554C20.5415 22.8841 20.2403 22.7599 20.0176 22.5387C19.7949 22.3175 19.6688 22.0172 19.6667 21.7033V21.6954ZM19.6667 14.597C19.6667 14.2817 19.7919 13.9794 20.0148 13.7565C20.2378 13.5335 20.5401 13.4083 20.8554 13.4083H25.3743C25.6896 13.4083 25.9919 13.5335 26.2148 13.7565C26.4378 13.9794 26.563 14.2817 26.563 14.597C26.563 14.9122 26.4378 15.2146 26.2148 15.4375C25.9919 15.6604 25.6896 15.7857 25.3743 15.7857H20.8554C20.5415 15.7857 20.2403 15.6615 20.0176 15.4403C19.7949 15.2191 19.6688 14.9188 19.6667 14.6049V14.597ZM27.3238 31.7615C27.3238 31.9176 27.293 32.0722 27.2333 32.2164C27.1735 32.3606 27.086 32.4917 26.9756 32.602C26.8652 32.7124 26.7342 32.8 26.59 32.8597C26.4457 32.9194 26.2912 32.9502 26.1351 32.9502H7.94037C7.62512 32.9502 7.32277 32.825 7.09985 32.602C6.87693 32.3791 6.75169 32.0768 6.75169 31.7615C6.75169 31.4463 6.87693 31.1439 7.09985 30.921C7.32277 30.6981 7.62512 30.5728 7.94037 30.5728H26.1371C26.2938 30.5731 26.449 30.6044 26.5936 30.6648C26.7383 30.7253 26.8695 30.8138 26.9798 30.9252C27.0901 31.0366 27.1773 31.1687 27.2363 31.3139C27.2953 31.4592 27.3251 31.6147 27.3238 31.7714V31.7615Z" fill="#4253FF"/>
</svg>
