<svg width="22" height="22" viewBox="0 0 22 22" fill="none" xmlns="http://www.w3.org/2000/svg">
<path d="M15.5271 22H6.47292C2.9033 22 0 19.0956 0 15.526V6.47402C0 2.9022 2.9033 0 6.47292 0H15.5271C19.0967 0 22.0011 2.9022 22.0011 6.47402V15.5263C22.0011 19.0956 19.0967 22 15.5271 22ZM6.47292 1.94119C3.97413 1.94119 1.94119 3.97523 1.94119 6.47375V15.526C1.94119 18.0245 3.97413 20.0585 6.47292 20.0585H15.5271C18.0259 20.0585 20.0596 18.0245 20.0596 15.526V6.47402C20.0596 3.97523 18.0259 1.94147 15.5271 1.94147H6.47292V1.94119ZM10.0341 16.51V11.9375H5.49548V10.0267H10.0338V5.48809H11.9676V10.0267H16.5067V11.9375H11.9676V16.51H10.0341Z" fill="#515878"/>
</svg>
