<svg width="18" height="18" viewBox="0 0 18 18" fill="none" xmlns="http://www.w3.org/2000/svg">
<path fill-rule="evenodd" clip-rule="evenodd" d="M14.0001 16.4832C12.5201 17.4722 10.78 18 9 18C6.61305 18 4.32387 17.0518 2.63604 15.364C0.948212 13.6761 5.78131e-07 11.3869 7.86805e-07 9C9.4242e-07 7.21997 0.527841 5.47991 1.51677 3.99987C2.50571 2.51983 3.91131 1.36627 5.55585 0.685086C7.20038 0.00389768 9.00998 -0.174331 10.7558 0.172937C12.5016 0.520204 14.1053 1.37737 15.364 2.63604C16.6226 3.89471 17.4798 5.49836 17.8271 7.24419C18.1743 8.99002 17.9961 10.7996 17.3149 12.4442C16.6337 14.0887 15.4802 15.4943 14.0001 16.4832ZM13.0324 2.96514C11.8388 2.16762 10.4355 1.74194 9 1.74194C7.07504 1.74194 5.22892 2.50662 3.86777 3.86777C2.50662 5.22893 1.74194 7.07504 1.74194 9C1.74194 10.4355 2.16761 11.8388 2.96514 13.0324C3.76267 14.2259 4.89622 15.1562 6.22246 15.7056C7.5487 16.2549 9.00805 16.3987 10.416 16.1186C11.8239 15.8385 13.1172 15.1473 14.1322 14.1322C15.1473 13.1172 15.8385 11.8239 16.1186 10.416C16.3987 9.00805 16.2549 7.5487 15.7056 6.22246C15.1562 4.89622 14.2259 3.76267 13.0324 2.96514ZM8.12894 13.3538L8.12894 7.61705L6.09668 9.64931L4.86571 8.41834L8.38442 4.89963C8.54773 4.73653 8.7691 4.64491 8.9999 4.64491C9.23071 4.64491 9.45208 4.73653 9.61539 4.89963L13.1341 8.41834L11.9031 9.64931L9.87087 7.61705L9.87087 13.3538L8.12894 13.3538Z" fill="#515878"/>
</svg>
