<svg width="26" height="30" viewBox="0 0 26 30" fill="none" xmlns="http://www.w3.org/2000/svg">
<path d="M20.5833 0H5.41667C2.42992 0 0 2.40321 0 5.35714V25.7143H8.66667V30H26V5.35714C26 2.40321 23.5701 0 20.5833 0ZM8.66667 23.5714H2.16667V5.35714C2.16667 3.585 3.62483 2.14286 5.41667 2.14286C7.2085 2.14286 8.66667 3.585 8.66667 5.35714V23.5714ZM23.8333 27.8571H10.8333V5.35714C10.8333 4.15179 10.4282 3.03857 9.74783 2.14286H20.5833C22.3752 2.14286 23.8333 3.585 23.8333 5.35714V27.8571ZM21.6667 7.5C21.6667 8.09143 21.1824 8.57143 20.5833 8.57143H14.0833C13.4853 8.57143 13 8.09143 13 7.5C13 6.90857 13.4853 6.42857 14.0833 6.42857H20.5833C21.1824 6.42857 21.6667 6.90857 21.6667 7.5ZM21.6667 11.7857C21.6667 12.3771 21.1824 12.8571 20.5833 12.8571H14.0833C13.4853 12.8571 13 12.3771 13 11.7857C13 11.1943 13.4853 10.7143 14.0833 10.7143H20.5833C21.1824 10.7143 21.6667 11.1943 21.6667 11.7857ZM21.6667 16.0714C21.6667 16.6639 21.1824 17.1429 20.5833 17.1429H14.0833C13.4853 17.1429 13 16.6639 13 16.0714C13 15.48 13.4853 15 14.0833 15H20.5833C21.1824 15 21.6667 15.48 21.6667 16.0714ZM21.6667 20.3571C21.6667 20.9496 21.1824 21.4286 20.5833 21.4286H14.0833C13.4853 21.4286 13 20.9496 13 20.3571C13 19.7646 13.4853 19.2857 14.0833 19.2857H20.5833C21.1824 19.2857 21.6667 19.7646 21.6667 20.3571ZM21.6667 24.6429C21.6667 25.2354 21.1824 25.7143 20.5833 25.7143H14.0833C13.4853 25.7143 13 25.2354 13 24.6429C13 24.0504 13.4853 23.5714 14.0833 23.5714H20.5833C21.1824 23.5714 21.6667 24.0504 21.6667 24.6429Z" fill="#FF8870"/>
</svg>
