<svg width="36" height="42" viewBox="0 0 36 42" fill="none" xmlns="http://www.w3.org/2000/svg">
<path d="M33.7506 8.41784L26.6878 1.35709C26.2589 0.925458 25.7486 0.583247 25.1864 0.350295C24.6243 0.117343 24.0215 -0.00171619 23.413 1.86903e-05H11.5262C10.0285 0.000884454 8.57928 0.530984 7.4345 1.4967C6.28971 2.46241 5.52301 3.8016 5.26981 5.27775C3.79696 5.5327 2.46115 6.29878 1.4973 7.44127C0.533443 8.58376 0.00326621 10.0295 0 11.5243V35.6445C0.00157363 37.3296 0.671671 38.9452 1.86321 40.1368C3.05475 41.3283 4.67038 41.9984 6.35547 42H23.5913C25.087 41.9963 26.5334 41.465 27.6757 40.4995C28.818 39.534 29.583 38.1964 29.8358 36.7223C31.3101 36.4685 32.6476 35.7027 33.6127 34.5597C34.5777 33.4166 35.1085 31.9697 35.1116 30.4738V11.6887C35.112 11.0806 34.9919 10.4785 34.7583 9.91712C34.5247 9.35572 34.1822 8.84616 33.7506 8.41784ZM23.5834 39.6226H6.34754C5.29228 39.6216 4.28054 39.2019 3.53435 38.4557C2.78817 37.7096 2.3685 36.6978 2.36745 35.6426V11.5243C2.36996 10.6785 2.64302 9.85573 3.14671 9.1763C3.6504 8.49688 4.35827 7.99645 5.16679 7.74822V30.4738C5.16836 32.159 5.8384 33.7749 7.02988 34.9667C8.22136 36.1586 9.83698 36.8291 11.5223 36.8312H27.3614C27.1103 37.6378 26.6086 38.3433 25.9292 38.8452C25.2498 39.3472 24.4281 39.6195 23.5834 39.6226ZM32.7303 30.4738C32.7292 31.5292 32.3096 32.5412 31.5635 33.2877C30.8174 34.0342 29.8056 34.4543 28.7502 34.4559H11.5143C10.4589 34.4543 9.44715 34.0342 8.70102 33.2877C7.95489 32.5412 7.53529 31.5292 7.53424 30.4738V6.35747C7.53476 5.83428 7.63833 5.31631 7.83903 4.83314C8.03972 4.34997 8.33362 3.91106 8.70395 3.54148C9.07427 3.17189 9.51376 2.87886 9.99733 2.67913C10.4809 2.47939 10.9991 2.37686 11.5223 2.37738H23.409C23.7056 2.37641 23.9994 2.43421 24.2735 2.54745C24.5475 2.66068 24.7965 2.8271 25.0058 3.03709L32.0706 10.1038C32.2803 10.3134 32.4465 10.5623 32.5597 10.8364C32.673 11.1104 32.7309 11.4041 32.7303 11.7006V30.4738ZM27.3535 16.693C27.3535 17.0083 27.2282 17.3106 27.0053 17.5336C26.7824 17.7565 26.4801 17.8817 26.1648 17.8817H14.1076C13.7924 17.8817 13.49 17.7565 13.2671 17.5336C13.0442 17.3106 12.919 17.0083 12.919 16.693C12.919 16.3778 13.0442 16.0754 13.2671 15.8525C13.49 15.6296 13.7924 15.5043 14.1076 15.5043H26.1668C26.4817 15.5049 26.7835 15.6303 27.006 15.8532C27.2285 16.0761 27.3535 16.3781 27.3535 16.693ZM27.3535 24.3026C27.3535 24.6178 27.2282 24.9202 27.0053 25.1431C26.7824 25.366 26.4801 25.4912 26.1648 25.4912H14.1076C13.7924 25.4912 13.49 25.366 13.2671 25.1431C13.0442 24.9202 12.919 24.6178 12.919 24.3026C12.919 23.9873 13.0442 23.685 13.2671 23.462C13.49 23.2391 13.7924 23.1139 14.1076 23.1139H26.1668C26.4817 23.1144 26.7835 23.2399 27.006 23.4627C27.2285 23.6856 27.3535 23.9876 27.3535 24.3026Z" fill="#4253FF"/>
</svg>
