<svg width="21" height="24" viewBox="0 0 21 24" fill="none" xmlns="http://www.w3.org/2000/svg">
<path d="M1.5 3C1.10218 3 0.720645 3.15804 0.43934 3.43934C0.158036 3.72064 0 4.10218 0 4.5V19.5C0 19.8978 0.158036 20.2794 0.43934 20.5607C0.720645 20.842 1.10218 21 1.5 21C1.89782 21 2.27936 20.842 2.56066 20.5607C2.84196 20.2794 3 19.8978 3 19.5V4.5C3 4.10218 2.84196 3.72064 2.56066 3.43934C2.27936 3.15804 1.89782 3 1.5 3Z" fill="#515878"/>
<path d="M7.5 6C7.10218 6 6.72064 6.15804 6.43934 6.43934C6.15804 6.72064 6 7.10218 6 7.5V16.5C6 16.8978 6.15804 17.2794 6.43934 17.5607C6.72064 17.842 7.10218 18 7.5 18C7.89782 18 8.27936 17.842 8.56066 17.5607C8.84196 17.2794 9 16.8978 9 16.5V7.5C9 7.10218 8.84196 6.72064 8.56066 6.43934C8.27936 6.15804 7.89782 6 7.5 6Z" fill="#515878"/>
<path d="M13.5 0C13.1022 0 12.7206 0.158036 12.4393 0.43934C12.158 0.720645 12 1.10218 12 1.5V22.5C12 22.8978 12.158 23.2794 12.4393 23.5607C12.7206 23.842 13.1022 24 13.5 24C13.8978 24 14.2794 23.842 14.5607 23.5607C14.842 23.2794 15 22.8978 15 22.5V1.5C15 1.10218 14.842 0.720645 14.5607 0.43934C14.2794 0.158036 13.8978 0 13.5 0Z" fill="#515878"/>
<path d="M19.5 9C19.1022 9 18.7206 9.15804 18.4393 9.43934C18.158 9.72064 18 10.1022 18 10.5V13.5C18 13.8978 18.158 14.2794 18.4393 14.5607C18.7206 14.842 19.1022 15 19.5 15C19.8978 15 20.2794 14.842 20.5607 14.5607C20.842 14.2794 21 13.8978 21 13.5V10.5C21 10.1022 20.842 9.72064 20.5607 9.43934C20.2794 9.15804 19.8978 9 19.5 9Z" fill="#515878"/>
</svg>
