<svg width="88" height="78" viewBox="0 0 88 78" fill="none" xmlns="http://www.w3.org/2000/svg">
<rect y="29.1797" width="37.8979" height="37.8979" transform="rotate(-50.35 0 29.1797)" fill="#FFB200"/>
<path d="M50.022 27.168C50.022 27.168 47.5636 29.5132 48.1033 30.1124C48.643 30.7116 52.7204 30.1124 52.7204 30.1124C52.7204 30.1124 52.9595 31.1918 54.639 31.1323C56.3186 31.0727 59.7363 31.1323 59.7363 31.1323" fill="#CCF8FE"/>
<path fill-rule="evenodd" clip-rule="evenodd" d="M31.5665 27.7637L41.2372 36.978C41.2372 36.978 43.9356 51.0653 46.1846 53.8729C48.4336 56.6804 59.8563 65.2211 59.8563 65.2211L70.5597 77.0941L87.2898 68.6536L79.1946 59.0118C79.1946 59.0118 81.0319 41.6159 79.8622 38.3262C79.0111 35.9323 68.9783 27.1724 62.5745 21.1863C60.0464 18.8248 56.591 17.7241 53.1628 18.1883L34.6608 20.6893C34.3209 20.7354 34.0429 20.9828 33.9575 21.3149C33.8721 21.6471 33.9964 21.9979 34.2719 22.2022L36.2907 23.6962L52.6598 23.8153L62.6936 41.0633L52.8999 40.9056C52.8999 40.9056 42.5209 22.5117 32.2739 25.0563C31.7094 25.1991 31.2674 25.6377 31.1203 26.201C30.9731 26.7643 31.1441 27.363 31.5665 27.7637Z" fill="white"/>
<path d="M70.1551 35.9342C70.1551 35.9342 60.0856 21.1207 58.0846 19.3846C56.5886 18.0859 54.6392 18.0859 54.6392 18.0859" stroke="black" stroke-width="0.55"/>
<path d="M75.2522 34.834C75.2522 34.834 65.153 24.324 61.2581 20.5323C59.4724 18.7932 57.8643 18.5254 57.8643 18.5254" stroke="black" stroke-width="0.55"/>
<path fill-rule="evenodd" clip-rule="evenodd" d="M78.9169 30.8481L32.0358 28.7648L26.0566 25.2013L32.5576 23.0059L79.1728 25.0793C79.939 25.112 80.6607 25.4483 81.1785 26.0139C81.6963 26.5796 81.9677 27.3281 81.9328 28.0942C81.8991 28.8597 81.5621 29.5803 80.9963 30.097C80.4305 30.6137 79.6823 30.8839 78.9169 30.8481Z" fill="black"/>
<path d="M43.6787 29.3788L32.645 28.8887L31.5666 27.8619C31.1449 27.4607 30.9746 26.862 31.1219 26.2988C31.2692 25.7357 31.7108 25.297 32.2749 25.1536C36.262 24.1635 40.266 26.3451 43.6787 29.3788Z" fill="white"/>
<path fill-rule="evenodd" clip-rule="evenodd" d="M79.1502 29.2809C79.9036 29.2809 80.5143 28.6702 80.5143 27.9168C80.5143 27.1635 79.9036 26.5527 79.1502 26.5527C78.3969 26.5527 77.7861 27.1635 77.7861 27.9168C77.7861 28.6702 78.3969 29.2809 79.1502 29.2809Z" fill="white"/>
<path opacity="0.2" fill-rule="evenodd" clip-rule="evenodd" d="M35.0151 20.6372C35.0151 20.6372 37.4705 23.0807 38.9645 20.1035L35.0151 20.6372Z" fill="black"/>
<path opacity="0.2" fill-rule="evenodd" clip-rule="evenodd" d="M32.4286 28.583C32.4286 28.583 32.0317 26.7715 34.5843 27.0483C37.1369 27.3251 37.4921 29.3638 36.5685 30.0533C35.9866 30.4681 35.2782 30.6667 34.5655 30.6148" fill="black"/>
<path d="M12.125 31.8788C12.125 31.8788 14.2837 15.3619 17.4613 14.9422C20.6389 14.5226 20.9395 29.5137 22.3224 29.6635C23.7054 29.8133 26.0566 25.2022 26.0566 25.2022" stroke="black"/>
</svg>
