<svg width="43" height="42" viewBox="0 0 43 42" fill="none" xmlns="http://www.w3.org/2000/svg">
<path d="M34.0259 34.8679C34.0259 35.8045 33.8415 36.7319 33.483 37.5973C33.1246 38.4626 32.5993 39.2488 31.937 39.9111C31.2747 40.5733 30.4885 41.0987 29.6232 41.4571C28.7579 41.8155 27.8305 42 26.8939 42H7.13207C6.19548 42 5.26805 41.8155 4.40275 41.4571C3.53744 41.0987 2.75121 40.5733 2.08894 39.9111C1.42666 39.2488 0.901317 38.4626 0.542897 37.5973C0.184477 36.7319 0 35.8045 0 34.8679V7.13208C0 5.24053 0.751413 3.42646 2.08894 2.08894C3.42646 0.751413 5.24053 0 7.13207 0H20.7841C22.1481 0.00414272 23.4553 0.546685 24.4214 1.50962L32.5282 9.63226C33.0073 10.1097 33.387 10.6773 33.6454 11.3023C33.9038 11.9273 34.0359 12.5973 34.0339 13.2736V18.0283C34.0339 18.3436 33.9086 18.6459 33.6857 18.8688C33.4628 19.0917 33.1604 19.217 32.8452 19.217C32.5299 19.217 32.2276 19.0917 32.0047 18.8688C31.7817 18.6459 31.6565 18.3436 31.6565 18.0283V13.2736C31.6545 12.5388 31.3634 11.8342 30.8462 11.3123L22.7394 3.18962C22.2207 2.67094 21.5176 2.37888 20.7841 2.37736H7.13207C5.87105 2.37736 4.66166 2.8783 3.76998 3.76998C2.8783 4.66166 2.37736 5.87105 2.37736 7.13208V34.8679C2.37736 36.129 2.8783 37.3383 3.76998 38.23C4.66166 39.1217 5.87105 39.6226 7.13207 39.6226H26.9117C27.5361 39.6226 28.1544 39.4997 28.7312 39.2607C29.3081 39.0218 29.8323 38.6715 30.2738 38.23C30.7153 37.7885 31.0655 37.2643 31.3045 36.6875C31.5434 36.1106 31.6664 35.4923 31.6664 34.8679C31.6664 34.5527 31.7916 34.2503 32.0146 34.0274C32.2375 33.8045 32.5398 33.6792 32.8551 33.6792C33.1703 33.6792 33.4727 33.8045 33.6956 34.0274C33.9185 34.2503 34.0438 34.5527 34.0438 34.8679H34.0259ZM41.6573 25.7389L37.3424 21.3705C37.2326 21.2594 37.102 21.171 36.958 21.1104C36.8141 21.0498 36.6596 21.0181 36.5034 21.0172C36.3472 21.0162 36.1924 21.0461 36.0477 21.105C35.9031 21.1639 35.7715 21.2508 35.6604 21.3606C35.5493 21.4704 35.4609 21.601 35.4003 21.7449C35.3397 21.8888 35.308 22.0433 35.3071 22.1995C35.3062 22.3557 35.336 22.5105 35.3949 22.6552C35.4538 22.7998 35.5407 22.9315 35.6505 23.0425L37.9426 25.3585H28.9424C28.7863 25.3585 28.6317 25.3892 28.4875 25.449C28.3433 25.5087 28.2122 25.5963 28.1018 25.7066C27.9915 25.817 27.9039 25.9481 27.8442 26.0923C27.7844 26.2365 27.7537 26.3911 27.7537 26.5472C27.7537 26.7033 27.7844 26.8578 27.8442 27.0021C27.9039 27.1463 27.9915 27.2773 28.1018 27.3877C28.2122 27.4981 28.3433 27.5856 28.4875 27.6454C28.6317 27.7051 28.7863 27.7358 28.9424 27.7358H37.9684L35.6604 30.0558C35.4376 30.2791 35.3126 30.5817 35.313 30.8972C35.3134 31.2126 35.439 31.515 35.6624 31.7377C35.8857 31.9605 36.1883 32.0855 36.5038 32.0851C36.8192 32.0847 37.1216 31.9591 37.3443 31.7358L41.6592 27.4129C41.8798 27.19 42.0033 26.889 42.0029 26.5755C42.0026 26.2619 41.8783 25.9612 41.6573 25.7389ZM21.628 12.3821H9.76104C9.60494 12.3821 9.45037 12.4128 9.30615 12.4726C9.16193 12.5323 9.03089 12.6199 8.92051 12.7302C8.81013 12.8406 8.72258 12.9716 8.66284 13.1159C8.6031 13.2601 8.57236 13.4147 8.57236 13.5708C8.57236 13.7269 8.6031 13.8814 8.66284 14.0256C8.72258 14.1699 8.81013 14.3009 8.92051 14.4113C9.03089 14.5217 9.16193 14.6092 9.30615 14.669C9.45037 14.7287 9.60494 14.7594 9.76104 14.7594H21.63C21.9453 14.7594 22.2476 14.6342 22.4705 14.4113C22.6934 14.1884 22.8187 13.886 22.8187 13.5708C22.8187 13.2555 22.6934 12.9532 22.4705 12.7302C22.2476 12.5073 21.9453 12.3821 21.63 12.3821H21.628ZM21.628 19.8113H9.76104C9.44578 19.8113 9.14343 19.9366 8.92051 20.1595C8.69759 20.3824 8.57236 20.6847 8.57236 21C8.57236 21.3153 8.69759 21.6176 8.92051 21.8405C9.14343 22.0634 9.44578 22.1887 9.76104 22.1887H21.63C21.9453 22.1887 22.2476 22.0634 22.4705 21.8405C22.6934 21.6176 22.8187 21.3153 22.8187 21C22.8187 20.6847 22.6934 20.3824 22.4705 20.1595C22.2476 19.9366 21.9453 19.8113 21.63 19.8113H21.628ZM21.628 27.2406H9.76104C9.44578 27.2406 9.14343 27.3658 8.92051 27.5887C8.69759 27.8116 8.57236 28.114 8.57236 28.4292C8.57236 28.7445 8.69759 29.0469 8.92051 29.2698C9.14343 29.4927 9.44578 29.6179 9.76104 29.6179H21.63C21.9453 29.6179 22.2476 29.4927 22.4705 29.2698C22.6934 29.0469 22.8187 28.7445 22.8187 28.4292C22.8187 28.114 22.6934 27.8116 22.4705 27.5887C22.2476 27.3658 21.9453 27.2406 21.63 27.2406H21.628Z" fill="#4253FF"/>
</svg>
