<svg width="24" height="18" viewBox="0 0 24 18" fill="none" xmlns="http://www.w3.org/2000/svg">
<path fill-rule="evenodd" clip-rule="evenodd" d="M22.1064 6.54154L23.948 4.83405C16.8067 -2.19228 5.46732 -1.02123 0 4.89392L1.78173 6.54394C4.74649 3.94079 8.0992 2.58294 11.9931 2.57576C15.8871 2.56857 19.2087 3.97192 22.1064 6.54154ZM3.53243 8.31871L5.3429 9.99506C7.29466 8.25405 9.51463 7.37994 12.022 7.37994C14.5293 7.37994 16.7278 8.28278 18.6316 9.96632L20.4828 8.28997C15.8225 3.42614 7.44074 3.92904 3.53243 8.31871ZM15.3841 13.2979C12.848 11.6216 11.095 11.6216 8.64756 13.3099L6.80118 11.6072C9.84736 8.76219 14.1939 8.76219 17.1922 11.5976L15.3841 13.2979ZM12.7287 14.009C12.4742 13.9119 12.203 13.8665 11.9308 13.8755C11.3815 13.8837 10.8578 14.1084 10.4734 14.5009C10.0891 14.8933 9.87522 15.4216 9.87844 15.9709C9.90139 16.519 10.1362 17.0367 10.5333 17.4151C10.9304 17.7934 11.4589 18.0029 12.0074 17.9993C12.2797 17.9953 12.5484 17.9376 12.7984 17.8295C13.0483 17.7215 13.2745 17.5653 13.464 17.3698C13.6535 17.1743 13.8026 16.9433 13.9028 16.6901C14.0029 16.437 14.0522 16.1665 14.0478 15.8943C14.0438 15.622 13.9856 15.3532 13.8766 15.1036C13.7675 14.8541 13.6099 14.6287 13.4128 14.4408C13.2157 14.2528 12.9831 14.106 12.7287 14.009Z" fill="#515878"/>
</svg>
