<svg width="22" height="22" viewBox="0 0 22 22" fill="none" xmlns="http://www.w3.org/2000/svg">
<path opacity="0.4" d="M8.77723 1C6.785 1 4.79142 1.76174 3.27485 3.27741C0.241716 6.30876 0.241716 11.2374 3.27485 14.2687C6.15008 17.1422 10.7397 17.3009 13.7933 14.727L19.8654 20.7954C20.1044 21.0691 20.552 21.0555 20.7878 20.8301C21.0504 20.579 21.0822 20.099 20.8102 19.8581L14.7312 13.7827C17.3043 10.7309 17.154 6.15009 14.2796 3.27741C12.763 1.76174 10.7695 1 8.77723 1ZM8.77723 2.32618C10.4254 2.32618 12.0731 2.96076 13.3348 4.22171C15.8582 6.7436 15.8651 10.8095 13.3417 13.3314C10.8183 15.8533 6.74312 15.8532 4.21974 13.3314C1.69635 10.8095 1.69635 6.7436 4.21974 4.22171C5.48143 2.96076 7.12902 2.32618 8.77723 2.32618Z" fill="#4D5178" stroke="#4D5178"/>
</svg>
