<svg width="22" height="22" viewBox="0 0 22 22" fill="none" xmlns="http://www.w3.org/2000/svg">
<path d="M19.7268 18.4402H2.57336V1.28668C2.57336 0.576266 1.99709 0 1.28668 0C0.576266 0 0 0.576266 0 1.28668V21.0132H19.7265C20.4369 21.0132 21.0132 20.4369 21.0132 19.7265C21.0132 19.0161 20.4369 18.4402 19.7268 18.4402Z" fill="#515878"/>
<path d="M21.6229 3.87502C21.1203 3.37239 20.3063 3.37239 19.8037 3.87502L13.5236 10.1544L10.1188 6.74963L5.24172 11.627C4.73909 12.1297 4.73909 12.9436 5.24172 13.4463C5.49287 13.6974 5.82202 13.8232 6.15117 13.8232C6.48032 13.8232 6.80947 13.6974 7.06062 13.4463L10.1185 10.3884L13.5233 13.7932L21.6226 5.6946C22.1256 5.19196 22.1256 4.37766 21.6229 3.87502Z" fill="#515878"/>
</svg>
