<svg width="30" height="30" viewBox="0 0 30 30" fill="none" xmlns="http://www.w3.org/2000/svg">
<path fill-rule="evenodd" clip-rule="evenodd" d="M29.0625 0H0.9375C0.42 0 0 0.42 0 0.9375V17.8125C0 18.33 0.42 18.75 0.9375 18.75H29.0625C29.58 18.75 30 18.33 30 17.8125V0.9375C30 0.42 29.58 0 29.0625 0ZM1.875 16.875V1.875H28.125V16.875H1.875ZM25.3125 8.4375H23.4375V10.3125H25.3125V8.4375ZM4.6875 8.4375H6.5625V10.3125H4.6875V8.4375ZM15 15C18.1022 15 20.625 12.4772 20.625 9.375C20.625 6.27281 18.1022 3.75 15 3.75C11.8978 3.75 9.375 6.27281 9.375 9.375C9.375 12.4772 11.8978 15 15 15ZM15 5.625C17.0681 5.625 18.75 7.30687 18.75 9.375C18.75 11.4431 17.0681 13.125 15 13.125C12.9319 13.125 11.25 11.4431 11.25 9.375C11.25 7.30687 12.9319 5.625 15 5.625ZM0 22.5V20.625H30V22.5H0ZM0 24.375V26.25H30V24.375H0ZM0 30V28.125H30V30H0Z" fill="#7ED320"/>
</svg>
