<svg width="18" height="21" viewBox="0 0 18 21" fill="none" xmlns="http://www.w3.org/2000/svg">
<path d="M8.75 16.5938C9.33594 16.5938 9.84375 16.125 9.84375 15.5V13C9.84375 12.4141 9.33594 11.9062 8.75 11.9062C8.125 11.9062 7.65625 12.4141 7.65625 13V15.5C7.65625 16.125 8.125 16.5938 8.75 16.5938ZM17.5 9.875C17.5 8.85938 16.6406 8 15.625 8H14.375V6.20312C14.375 3.07812 11.875 0.539062 8.75 0.5C5.625 0.5 3.125 3.03906 3.125 6.125V8H1.875C0.820312 8 0 8.85938 0 9.875V18.625C0 19.6797 0.820312 20.5 1.875 20.5H15.625C16.6406 20.5 17.5 19.6797 17.5 18.625V9.875ZM5 8V6.125C5 4.09375 6.67969 2.375 8.75 2.375C10.7812 2.375 12.5 4.09375 12.5 6.125V8H5ZM15.625 9.875V18.625H1.875V9.875H15.625Z" fill="#515878"/>
</svg>
