<svg width="24" height="24" viewBox="0 0 24 24" fill="none" xmlns="http://www.w3.org/2000/svg">
<path d="M12.3107 23H11.6507L11.3141 22.8988C10.9133 22.7894 10.5422 22.5915 10.2281 22.3197C9.91396 22.0478 9.66485 21.7089 9.49911 21.328C9.38081 21.0644 9.23321 20.815 9.05911 20.5844C8.78412 20.2192 8.56412 20.1444 8.39912 20.1444C7.99452 20.1023 7.58593 20.166 7.21333 20.3292C6.71975 20.5501 6.17107 20.6172 5.63883 20.5216C5.10658 20.426 4.61549 20.1723 4.22957 19.7935C3.84366 19.4147 3.58083 18.9285 3.47538 18.3981C3.36992 17.8677 3.42672 17.3179 3.63837 16.8203C3.78071 16.5033 3.85563 16.1602 3.85837 15.8127C3.87544 15.6246 3.83064 15.4361 3.73077 15.2759C3.46951 14.9247 3.11292 14.6559 2.70338 14.5015C2.27839 14.3323 1.90465 14.0556 1.61879 13.6985C1.34532 13.3751 1.15442 12.9901 1.06245 12.5766C0.97049 12.1632 0.980216 11.7336 1.0908 11.3247C1.19985 10.9168 1.40232 10.5399 1.6822 10.2237C1.96209 9.90755 2.3117 9.66086 2.70338 9.50314C2.98231 9.39715 3.23844 9.23885 3.45797 9.03675C3.64703 8.90154 3.78315 8.70476 3.84297 8.48015C3.9035 8.04971 3.84016 7.61092 3.66037 7.21517C3.39057 6.59545 3.3662 5.89639 3.59217 5.25939C3.70488 4.91048 3.89102 4.58976 4.13806 4.31881C4.3851 4.04786 4.68731 3.83297 5.02435 3.6886C5.37114 3.53653 5.74568 3.45802 6.12434 3.45802C6.503 3.45802 6.87755 3.53653 7.22433 3.6886C7.528 3.82615 7.85911 3.89237 8.19232 3.8822C8.37118 3.89152 8.54837 3.84376 8.69832 3.7458C9.0493 3.48486 9.31744 3.1281 9.47051 2.71841C9.64153 2.28718 9.9221 1.90803 10.2845 1.61843C10.6093 1.34345 10.9963 1.15201 11.4119 1.06075C11.8276 0.969498 12.2592 0.981197 12.6693 1.09483C13.076 1.20801 13.4514 1.41305 13.7665 1.69415C14.0815 1.97525 14.3278 2.32492 14.4865 2.71621C14.5937 2.99568 14.7527 3.25242 14.9551 3.47301C15.1008 3.67665 15.3202 3.81552 15.5666 3.8602C15.9747 3.90208 16.3867 3.83608 16.7612 3.6688C17.3878 3.39195 18.0971 3.36752 18.7412 3.6006C19.0876 3.71445 19.4057 3.90089 19.6743 4.14749C19.9429 4.39408 20.1558 4.69515 20.2988 5.03059C20.4507 5.37741 20.5292 5.75194 20.5292 6.13058C20.5292 6.50922 20.4507 6.88375 20.2988 7.23057C20.1619 7.53613 20.0943 7.86819 20.1008 8.20296C20.0871 8.3846 20.1302 8.56601 20.224 8.72215C20.4965 9.08813 20.8706 9.36585 21.2998 9.52074C21.824 9.72403 22.2617 10.1026 22.5384 10.5921C22.6529 10.8077 22.75 11.0321 22.8288 11.2631C22.8574 11.3423 22.8882 11.4237 22.919 11.5029L22.9476 11.5601L22.9608 11.6239C23.0107 11.87 23.0107 12.1236 22.9608 12.3697L22.9454 12.4401L22.9168 12.5281C22.9168 12.5479 22.9014 12.5699 22.8948 12.5963C22.7937 13.0357 22.5853 13.4431 22.2881 13.7821C21.9909 14.1211 21.6143 14.3812 21.192 14.5389C20.8992 14.6569 20.6345 14.8353 20.4154 15.0625C20.2527 15.1935 20.1458 15.3814 20.1162 15.5883C20.0745 15.9936 20.1382 16.4028 20.301 16.7763C20.4989 17.2283 20.5682 17.7262 20.5012 18.2151C20.457 18.629 20.314 19.0263 20.0843 19.3736C19.8546 19.7208 19.5449 20.0078 19.1812 20.2104C18.814 20.4144 18.405 20.5316 17.9855 20.5529C17.566 20.5743 17.1472 20.4993 16.7612 20.3336C16.4566 20.1985 16.1265 20.1302 15.7932 20.1334C15.6001 20.1173 15.4072 20.1686 15.2476 20.2786C14.8998 20.5536 14.6342 20.9189 14.4799 21.3346C14.329 21.7072 14.0923 22.0388 13.7891 22.3026C13.3924 22.6361 12.9217 22.8699 12.4163 22.9846L12.3107 23ZM11.8707 21.5612H12.1237C12.3787 21.5033 12.6171 21.3882 12.8211 21.2246C12.9554 21.109 13.0609 20.9636 13.1291 20.8C13.378 20.1453 13.8 19.5705 14.3501 19.1368C14.7611 18.8317 15.2641 18.6764 15.7756 18.6968C16.3183 18.6901 16.8559 18.802 17.3508 19.0246C17.533 19.0979 17.7293 19.1296 17.9253 19.1175C18.1213 19.1053 18.3121 19.0495 18.4838 18.9542C18.6507 18.8606 18.792 18.7274 18.8952 18.5662C18.9984 18.4051 19.0604 18.221 19.0756 18.0303C19.1095 17.8002 19.0774 17.5652 18.9832 17.3527C18.7238 16.7578 18.6201 16.1067 18.6818 15.4607C18.7405 14.9196 18.9928 14.4179 19.3924 14.0483C19.7535 13.6768 20.1891 13.3859 20.6706 13.1947C20.8816 13.1176 21.0692 12.9875 21.2153 12.8167C21.3613 12.646 21.4609 12.4405 21.5044 12.2201C21.522 12.1585 21.5396 12.1057 21.555 12.0595C21.5566 12.0375 21.5566 12.0155 21.555 11.9935C21.555 11.9935 21.555 11.9737 21.555 11.9649C21.5286 11.8967 21.5044 11.8307 21.4802 11.7625C21.4266 11.6031 21.3611 11.448 21.2844 11.2983C21.1697 11.0949 20.9865 10.939 20.7674 10.8583C20.0812 10.603 19.4858 10.1507 19.0558 9.55814C18.7875 9.16226 18.6505 8.69201 18.6642 8.21396C18.6557 7.669 18.7677 7.12888 18.992 6.63217C19.0573 6.46861 19.0891 6.29364 19.0857 6.11758C19.0823 5.94151 19.0437 5.76791 18.9722 5.60698C18.911 5.45582 18.8177 5.31973 18.6988 5.20807C18.58 5.09641 18.4383 5.01184 18.2836 4.96019C17.9808 4.84328 17.6441 4.85039 17.3464 4.97999C16.7465 5.24615 16.0878 5.35227 15.4346 5.28799C14.8297 5.21181 14.2778 4.90431 13.8947 4.43C13.5711 4.07592 13.3173 3.6639 13.1467 3.21561C13.0679 3.03758 12.9507 2.87918 12.8035 2.75177C12.6563 2.62435 12.4828 2.53108 12.2953 2.47862C12.1048 2.42653 11.9044 2.42299 11.7122 2.46834C11.5201 2.51369 11.3423 2.60647 11.1953 2.73821C11.0255 2.87259 10.8942 3.04942 10.8147 3.25081C10.5602 3.91022 10.1229 4.48337 9.55411 4.90299C9.15952 5.17668 8.68774 5.31698 8.20772 5.30339C7.66239 5.31068 7.12197 5.19959 6.62374 4.97779C6.45985 4.91124 6.28425 4.87831 6.10738 4.88095C5.93051 4.8836 5.75598 4.92177 5.59415 4.99319C5.44328 5.05772 5.30827 5.15431 5.19847 5.27626C5.08868 5.39821 5.00675 5.54259 4.95836 5.69938C4.84408 5.99966 4.85118 6.33264 4.97816 6.62777C5.26395 7.26698 5.36457 7.97358 5.26855 8.66715C5.17036 9.23029 4.87189 9.73895 4.42816 10.0993C4.07475 10.4243 3.66259 10.679 3.21377 10.8495C3.03537 10.9276 2.87686 11.0449 2.75002 11.1927C2.62319 11.3405 2.5313 11.5149 2.48118 11.7031C2.43016 11.8941 2.42779 12.0948 2.47429 12.287C2.52079 12.4791 2.61467 12.6566 2.74738 12.8031C2.87896 12.969 3.05198 13.0973 3.24897 13.1749C3.90423 13.4271 4.47526 13.8586 4.89676 14.4201C5.18015 14.8261 5.32308 15.3135 5.30375 15.8083C5.30097 16.3507 5.18717 16.8867 4.96936 17.3835C4.87408 17.6156 4.85074 17.8709 4.90238 18.1165C4.95402 18.362 5.07824 18.5863 5.25894 18.7604C5.43964 18.9344 5.66847 19.0502 5.91576 19.0926C6.16304 19.135 6.41737 19.1021 6.64574 18.9982C7.24153 18.7396 7.8937 18.6381 8.53992 18.7034C8.87344 18.7432 9.19454 18.8541 9.48148 19.0287C9.76843 19.2033 10.0145 19.4375 10.2031 19.7154C10.443 20.0331 10.646 20.377 10.8081 20.7406C10.8902 20.933 11.0161 21.1036 11.1757 21.2388C11.3354 21.374 11.5244 21.4701 11.7277 21.5194L11.8707 21.5612ZM11.9851 16.5013C10.793 16.4989 9.65063 16.0236 8.80875 15.1797C7.96687 14.3357 7.49434 13.1922 7.49493 12.0001C7.49667 10.8103 7.96962 9.66971 8.8103 8.8278C9.65098 7.98588 10.7909 7.51125 11.9807 7.50776C13.1716 7.50951 14.3132 7.98337 15.1553 8.82547C15.9974 9.66757 16.4713 10.8092 16.473 12.0001C16.4719 13.1882 16.0006 14.3275 15.1622 15.1692C14.3238 16.0109 13.1863 16.4867 11.9983 16.4925H11.9763L11.9851 16.5013ZM11.9851 8.95535C11.3807 8.956 10.7902 9.1361 10.2883 9.47281C9.78646 9.80952 9.39589 10.2877 9.16612 10.8466C8.93636 11.4056 8.87776 12.0202 8.99775 12.6125C9.11774 13.2049 9.41091 13.7482 9.8401 14.1737C10.1213 14.4542 10.4552 14.6763 10.8226 14.8273C11.1899 14.9784 11.5835 15.0553 11.9807 15.0537H11.9983C12.8049 15.0485 13.5767 14.7245 14.1455 14.1525C14.7142 13.5805 15.0337 12.8068 15.0342 12.0001C15.0331 11.1918 14.7119 10.4167 14.1409 9.84453C13.57 9.27231 12.7956 8.94946 11.9873 8.94655L11.9851 8.95535Z" fill="#515878" stroke="#515878" stroke-width="0.75"/>
</svg>
