<svg width="20" height="20" viewBox="0 0 20 20" fill="none" xmlns="http://www.w3.org/2000/svg">
<path opacity="0.5" fill-rule="evenodd" clip-rule="evenodd" d="M10 0C4.5 0 0 4.5 0 10C0 15.5 4.5 20 10 20C15.5 20 20 15.5 20 10C20 4.5 15.5 0 10 0ZM10 18.125C5.5 18.125 1.875 14.5 1.875 10C1.875 5.5 5.5 1.875 10 1.875C14.5 1.875 18.125 5.5 18.125 10C18.125 14.5 14.5 18.125 10 18.125ZM10 16.25C10.6904 16.25 11.25 15.6904 11.25 15C11.25 14.3096 10.6904 13.75 10 13.75C9.30964 13.75 8.75 14.3096 8.75 15C8.75 15.6904 9.30964 16.25 10 16.25ZM6.5625 7.5C6.5625 5.625 8.125 4.0625 10 4.0625C11.875 4.0625 13.4375 5.625 13.4375 7.5C13.4375 9 12.625 9.81251 11.9375 10.4375C11.25 11.0625 10.9375 11.375 10.9375 12.1875H9.0625C9.0625 10.5625 9.9375 9.6875 10.625 9.0625C11.25 8.5 11.5625 8.1875 11.5625 7.5C11.5625 6.625 10.875 5.9375 10 5.9375C9.125 5.9375 8.4375 6.625 8.4375 7.5H6.5625Z" fill="#515878"/>
</svg>
