<svg width="23" height="32" viewBox="0 0 23 32" fill="none" xmlns="http://www.w3.org/2000/svg">
<path d="M22.2801 0.0770916C22.1214 0.00679352 21.9457 -0.0158986 21.7744 0.0117734C21.6031 0.0394455 21.4435 0.11629 21.315 0.232967L19.2904 2.07481L17.267 0.232967C17.1021 0.0832303 16.8874 0.00027205 16.6647 0.00027205C16.442 0.00027205 16.2272 0.0832303 16.0624 0.232967L14.0348 2.07481L12.0126 0.232967C11.8478 0.083733 11.6335 0.00108453 11.4112 0.00108453C11.1889 0.00108453 10.9745 0.083733 10.8098 0.232967L8.78519 2.07362L6.7588 0.232967C6.59391 0.0830624 6.37906 6.55064e-07 6.1562 6.55064e-07C5.93335 6.55064e-07 5.7185 0.0830624 5.5536 0.232967L3.52722 2.07541L1.49844 0.232967C1.36998 0.116189 1.21036 0.039251 1.03898 0.0115109C0.867608 -0.0162293 0.691865 0.00642328 0.533126 0.076714C0.374386 0.147005 0.23949 0.261905 0.144843 0.407441C0.0501958 0.552978 -0.000124982 0.72288 2.33114e-07 0.896485V31.103C-9.20093e-06 31.2765 0.0503957 31.4463 0.145088 31.5918C0.23978 31.7372 0.374683 31.852 0.533399 31.9223C0.692115 31.9925 0.86781 32.0151 1.03913 31.9873C1.21045 31.9596 1.37002 31.8826 1.49844 31.7659L3.52901 29.924L5.5542 31.7665C5.7191 31.9164 5.93395 31.9995 6.1568 31.9995C6.37965 31.9995 6.5945 31.9164 6.7594 31.7665L8.7834 29.9258L10.8098 31.7665C10.9747 31.9164 11.1895 31.9995 11.4124 31.9995C11.6352 31.9995 11.8501 31.9164 12.015 31.7665L14.0396 29.9258L16.0654 31.7665C16.2302 31.9162 16.445 31.9992 16.6677 31.9992C16.8904 31.9992 17.1051 31.9162 17.27 31.7665L19.2946 29.9258L21.315 31.7665C21.4434 31.8834 21.6029 31.9605 21.7743 31.9884C21.9456 32.0163 22.1214 31.9937 22.2802 31.9236C22.439 31.8534 22.574 31.7386 22.6688 31.5931C22.7636 31.4477 22.814 31.2778 22.814 31.1042V0.896485C22.814 0.722856 22.7635 0.552973 22.6687 0.407501C22.574 0.262029 22.4389 0.147238 22.2801 0.0770916ZM21.0223 29.079L19.8948 28.0535C19.7299 27.9035 19.5149 27.8203 19.2919 27.8203C19.0689 27.8203 18.8539 27.9035 18.689 28.0535L16.6626 29.8918L14.6374 28.0511C14.4725 27.9014 14.2578 27.8185 14.0351 27.8185C13.8124 27.8185 13.5977 27.9014 13.4328 28.0511L11.4076 29.8918L9.38301 28.0511C9.21815 27.9014 9.00343 27.8185 8.78071 27.8185C8.558 27.8185 8.34327 27.9014 8.17841 28.0511L6.15381 29.8918L4.12683 28.0506C3.96197 27.9008 3.74724 27.8179 3.52453 27.8179C3.30182 27.8179 3.08709 27.9008 2.92223 28.0506L1.79168 29.079V2.92048L2.92641 3.94891C3.09127 4.09864 3.306 4.1816 3.52871 4.1816C3.75142 4.1816 3.96615 4.09864 4.13101 3.94891L6.158 2.10766L8.18259 3.94831C8.34745 4.09805 8.56218 4.181 8.78489 4.181C9.00761 4.181 9.22233 4.09805 9.3872 3.94831L11.4118 2.10766L13.4376 3.94831C13.6024 4.09805 13.8172 4.181 14.0399 4.181C14.2626 4.181 14.4773 4.09805 14.6422 3.94831L16.6626 2.10766L18.6866 3.94831C18.8515 4.09838 19.0665 4.18155 19.2895 4.18155C19.5125 4.18155 19.7275 4.09838 19.8924 3.94831L21.0223 2.92048V29.079ZM17.5501 8.29552C17.5501 8.53311 17.4557 8.76097 17.2877 8.92897C17.1197 9.09697 16.8918 9.19135 16.6542 9.19135H6.15979C5.9222 9.19135 5.69434 9.09697 5.52633 8.92897C5.35833 8.76097 5.26395 8.53311 5.26395 8.29552C5.26395 8.05792 5.35833 7.83006 5.52633 7.66206C5.69434 7.49406 5.9222 7.39968 6.15979 7.39968H16.6542C16.8918 7.39968 17.1197 7.49406 17.2877 7.66206C17.4557 7.83006 17.5501 8.05792 17.5501 8.29552ZM17.5501 12.2862C17.5501 12.5238 17.4557 12.7516 17.2877 12.9196C17.1197 13.0876 16.8918 13.182 16.6542 13.182H6.15979C5.9222 13.182 5.69434 13.0876 5.52633 12.9196C5.35833 12.7516 5.26395 12.5238 5.26395 12.2862C5.26395 12.0486 5.35833 11.8207 5.52633 11.6527C5.69434 11.4847 5.9222 11.3903 6.15979 11.3903H16.6542C16.7719 11.3903 16.8885 11.4135 16.9972 11.4586C17.1059 11.5036 17.2047 11.5697 17.2879 11.6529C17.3711 11.7362 17.4371 11.835 17.4821 11.9438C17.527 12.0525 17.5502 12.1691 17.5501 12.2868V12.2862ZM14.6918 22.141C14.691 22.7602 14.4446 23.3539 14.0068 23.7918C13.5689 24.2296 12.9752 24.476 12.356 24.4767H12.2963V25.1247C12.2963 25.3623 12.2019 25.5902 12.0339 25.7582C11.8659 25.9262 11.638 26.0206 11.4004 26.0206C11.1629 26.0206 10.935 25.9262 10.767 25.7582C10.599 25.5902 10.5046 25.3623 10.5046 25.1247V24.4767H9.74613C9.50854 24.4767 9.28068 24.3824 9.11267 24.2144C8.94467 24.0464 8.85029 23.8185 8.85029 23.5809C8.85029 23.3433 8.94467 23.1155 9.11267 22.9475C9.28068 22.7795 9.50854 22.6851 9.74613 22.6851H12.3536C12.4979 22.6851 12.6363 22.6278 12.7383 22.5257C12.8404 22.4237 12.8977 22.2853 12.8977 22.141C12.8977 21.9967 12.8404 21.8583 12.7383 21.7563C12.6363 21.6542 12.4979 21.5969 12.3536 21.5969H10.4515C9.83197 21.5969 9.23787 21.3508 8.79983 20.9128C8.36179 20.4748 8.1157 19.8807 8.1157 19.2612C8.1157 18.6417 8.36179 18.0476 8.79983 17.6096C9.23787 17.1715 9.83197 16.9254 10.4515 16.9254H10.5112V16.2774C10.5112 16.0398 10.6056 15.812 10.7736 15.644C10.9416 15.476 11.1694 15.3816 11.407 15.3816C11.6446 15.3816 11.8725 15.476 12.0405 15.644C12.2085 15.812 12.3029 16.0398 12.3029 16.2774V16.9254H13.0613C13.2989 16.9254 13.5268 17.0198 13.6948 17.1878C13.8628 17.3558 13.9572 17.5837 13.9572 17.8213C13.9572 18.0589 13.8628 18.2867 13.6948 18.4547C13.5268 18.6227 13.2989 18.7171 13.0613 18.7171H10.4515C10.3072 18.7171 10.1688 18.7744 10.0667 18.8765C9.9647 18.9785 9.90738 19.1169 9.90738 19.2612C9.90738 19.4055 9.9647 19.5439 10.0667 19.6459C10.1688 19.7479 10.3072 19.8053 10.4515 19.8053H12.3584C12.9773 19.8065 13.5704 20.0531 14.0078 20.4909C14.4452 20.9287 14.6911 21.5221 14.6918 22.141Z" fill="#7000FF"/>
</svg>
