<svg width="22" height="26" viewBox="0 0 22 26" fill="none" xmlns="http://www.w3.org/2000/svg">
<path fill-rule="evenodd" clip-rule="evenodd" d="M10.4136 1.68825L15.1441 5.73753C15.455 6.00459 15.7046 6.33552 15.876 6.70776C16.0474 7.08 16.1366 7.48481 16.1375 7.89463V22.1617C16.1369 22.9143 15.8377 23.6359 15.3055 24.168C14.7734 24.7002 14.0518 24.9994 13.2992 25H3.83828C3.0857 24.9994 2.36412 24.7002 1.83197 24.168C1.29982 23.6359 1.00059 22.9143 1 22.1617V7.89463C1.00087 7.48481 1.09005 7.08 1.26148 6.70776C1.4329 6.33552 1.68255 6.00459 1.9934 5.73753L6.72387 1.68825C7.236 1.24436 7.89101 1 8.56875 1C9.24648 1 9.9015 1.24436 10.4136 1.68825ZM2.89219 20.6574V22.1617C2.89294 22.4124 2.99285 22.6526 3.17012 22.8299C3.34738 23.0071 3.58759 23.1071 3.83828 23.1078H13.2992C13.5499 23.1071 13.7901 23.0071 13.9674 22.8299C14.1446 22.6526 14.2446 22.4124 14.2453 22.1617V20.6574H2.89219ZM2.97989 7.49925C2.92277 7.62327 2.89287 7.75809 2.89219 7.89463V18.7652H14.2453V7.89463C14.2446 7.75809 14.2147 7.62327 14.1576 7.49925C14.1005 7.37523 14.0175 7.26487 13.9142 7.1756L9.18371 3.12632C9.01232 2.97979 8.79424 2.89928 8.56875 2.89928C8.34326 2.89928 8.12518 2.97979 7.95379 3.12632L3.22332 7.1756C3.12001 7.26487 3.037 7.37523 2.97989 7.49925ZM20.868 4.01567H16.1375C15.8866 4.01567 15.6459 3.916 15.4685 3.73857C15.2911 3.56114 15.1914 3.3205 15.1914 3.06958C15.1914 2.81866 15.2911 2.57802 15.4685 2.40059C15.6459 2.22316 15.8866 2.12349 16.1375 2.12349H20.868C21.1189 2.12349 21.3595 2.22316 21.537 2.40059C21.7144 2.57802 21.8141 2.81866 21.8141 3.06958C21.8141 3.3205 21.7144 3.56114 21.537 3.73857C21.3595 3.916 21.1189 4.01567 20.868 4.01567ZM8.56875 6.07786C8.00739 6.07786 7.45864 6.24432 6.99189 6.5562C6.52513 6.86807 6.16134 7.31135 5.94652 7.82998C5.7317 8.34861 5.67549 8.91929 5.78501 9.46986C5.89452 10.0204 6.16484 10.5262 6.56178 10.9231C6.95872 11.3201 7.46446 11.5904 8.01503 11.6999C8.5656 11.8094 9.13629 11.7532 9.65491 11.5384C10.1735 11.3235 10.6168 10.9598 10.9287 10.493C11.2406 10.0263 11.407 9.4775 11.407 8.91614C11.4048 8.16406 11.1051 7.4434 10.5733 6.9116C10.0415 6.37979 9.32084 6.08006 8.56875 6.07786ZM8.56875 9.86224C8.38163 9.86224 8.19871 9.80675 8.04313 9.70279C7.88754 9.59883 7.76628 9.45107 7.69467 9.2782C7.62307 9.10532 7.60433 8.91509 7.64084 8.73157C7.67734 8.54804 7.76745 8.37947 7.89976 8.24715C8.03208 8.11484 8.20065 8.02473 8.38418 7.98823C8.5677 7.95172 8.75793 7.97046 8.93081 8.04207C9.10368 8.11367 9.25144 8.23494 9.3554 8.39052C9.45936 8.5461 9.51484 8.72902 9.51484 8.91614C9.5141 9.16683 9.41418 9.40704 9.23691 9.5843C9.05965 9.76157 8.81944 9.86149 8.56875 9.86224Z" fill="#515878"/>
<path d="M15.1441 5.73753L15.2418 5.62376L15.2416 5.62358L15.1441 5.73753ZM10.4136 1.68825L10.3154 1.8016L10.3161 1.80221L10.4136 1.68825ZM16.1375 7.89463H16.2875L16.2875 7.89431L16.1375 7.89463ZM16.1375 22.1617L16.2875 22.1618V22.1617H16.1375ZM15.3055 24.168L15.4116 24.2741L15.3055 24.168ZM13.2992 25V25.15H13.2993L13.2992 25ZM3.83828 25L3.83816 25.15H3.83828V25ZM1.83197 24.168L1.93804 24.062H1.93804L1.83197 24.168ZM1 22.1617H0.85L0.85 22.1618L1 22.1617ZM1 7.89463L0.85 7.89431V7.89463H1ZM1.26148 6.70776L1.12523 6.64501L1.26148 6.70776ZM1.9934 5.73753L1.89585 5.62358L1.89565 5.62376L1.9934 5.73753ZM6.72387 1.68825L6.82141 1.80221L6.82211 1.8016L6.72387 1.68825ZM2.89219 22.1617H2.74219L2.74219 22.1622L2.89219 22.1617ZM2.89219 20.6574V20.5074H2.74219V20.6574H2.89219ZM3.83828 23.1078L3.83783 23.2578H3.83828V23.1078ZM13.2992 23.1078V23.2578L13.2997 23.2578L13.2992 23.1078ZM14.2453 22.1617L14.3953 22.1622V22.1617H14.2453ZM14.2453 20.6574H14.3953V20.5074H14.2453V20.6574ZM2.89219 7.89463L2.74219 7.89388V7.89463H2.89219ZM2.97989 7.49925L2.84364 7.43651L2.97989 7.49925ZM2.89219 18.7652H2.74219V18.9152H2.89219V18.7652ZM14.2453 18.7652V18.9152H14.3953V18.7652H14.2453ZM14.2453 7.89463H14.3953L14.3953 7.89388L14.2453 7.89463ZM14.1576 7.49925L14.2939 7.43651L14.1576 7.49925ZM13.9142 7.1756L14.0123 7.0621L14.0117 7.06164L13.9142 7.1756ZM9.18371 3.12632L9.28125 3.01236L9.28118 3.0123L9.18371 3.12632ZM7.95379 3.12632L7.85632 3.0123L7.85624 3.01236L7.95379 3.12632ZM3.22332 7.1756L3.12578 7.06164L3.12525 7.0621L3.22332 7.1756ZM15.4685 3.73857L15.3624 3.84463L15.3624 3.84463L15.4685 3.73857ZM15.4685 2.40059L15.3624 2.29452V2.29452L15.4685 2.40059ZM21.537 2.40059L21.643 2.29453V2.29452L21.537 2.40059ZM21.537 3.73857L21.643 3.84463V3.84463L21.537 3.73857ZM8.56875 6.07786L8.56919 5.92786H8.56875V6.07786ZM5.94652 7.82998L5.80794 7.77258L5.94652 7.82998ZM5.78501 9.46986L5.63789 9.49913L5.78501 9.46986ZM6.56178 10.9231L6.45572 11.0292H6.45572L6.56178 10.9231ZM8.01503 11.6999L7.98577 11.847L8.01503 11.6999ZM10.9287 10.493L10.804 10.4097L10.9287 10.493ZM11.407 8.91614H11.557L11.557 8.9157L11.407 8.91614ZM8.56875 9.86224V10.0122L8.5692 10.0122L8.56875 9.86224ZM8.93081 8.04207L8.98821 7.90348L8.93081 8.04207ZM9.3554 8.39052L9.23068 8.47386V8.47386L9.3554 8.39052ZM9.51484 8.91614L9.66484 8.91659V8.91614H9.51484ZM9.23691 9.5843L9.13085 9.47824V9.47824L9.23691 9.5843ZM15.2416 5.62358L10.5112 1.5743L10.3161 1.80221L15.0466 5.85149L15.2416 5.62358ZM16.0123 6.64501C15.8318 6.25319 15.5691 5.90486 15.2418 5.62376L15.0464 5.85131C15.3409 6.10432 15.5774 6.41784 15.7398 6.7705L16.0123 6.64501ZM16.2875 7.89431C16.2866 7.46294 16.1927 7.03683 16.0123 6.64501L15.7398 6.7705C15.9022 7.12316 15.9867 7.50668 15.9875 7.89495L16.2875 7.89431ZM16.2875 22.1617V7.89463H15.9875V22.1617H16.2875ZM15.4116 24.2741C15.9718 23.7138 16.2869 22.9542 16.2875 22.1618L15.9875 22.1616C15.9869 22.8744 15.7035 23.5579 15.1995 24.062L15.4116 24.2741ZM13.2993 25.15C14.0917 25.1494 14.8513 24.8343 15.4116 24.2741L15.1995 24.062C14.6954 24.566 14.0119 24.8494 13.2991 24.85L13.2993 25.15ZM3.83828 25.15H13.2992V24.85H3.83828V25.15ZM1.7259 24.2741C2.28616 24.8343 3.04584 25.1494 3.83816 25.15L3.8384 24.85C3.12556 24.8494 2.44209 24.566 1.93804 24.062L1.7259 24.2741ZM0.85 22.1618C0.850625 22.9542 1.16565 23.7138 1.7259 24.2741L1.93804 24.062C1.43398 23.5579 1.15056 22.8744 1.15 22.1616L0.85 22.1618ZM0.85 7.89463V22.1617H1.15V7.89463H0.85ZM1.12523 6.64501C0.944789 7.03683 0.850913 7.46294 0.85 7.89431L1.15 7.89495C1.15082 7.50668 1.23531 7.12316 1.39772 6.7705L1.12523 6.64501ZM1.89565 5.62376C1.56845 5.90486 1.30568 6.25319 1.12523 6.64501L1.39772 6.7705C1.56013 6.41784 1.79665 6.10432 2.09115 5.85131L1.89565 5.62376ZM6.62632 1.5743L1.89585 5.62358L2.09094 5.85149L6.82141 1.80221L6.62632 1.5743ZM8.56875 0.85C7.85492 0.85 7.16503 1.10737 6.62562 1.5749L6.82211 1.8016C7.30697 1.38135 7.92711 1.15 8.56875 1.15V0.85ZM10.5119 1.5749C9.97247 1.10737 9.28257 0.85 8.56875 0.85V1.15C9.21039 1.15 9.83052 1.38135 10.3154 1.8016L10.5119 1.5749ZM3.04219 22.1617V20.6574H2.74219V22.1617H3.04219ZM3.27618 22.7238C3.12694 22.5746 3.04282 22.3723 3.04219 22.1613L2.74219 22.1622C2.74305 22.4525 2.85877 22.7307 3.06405 22.9359L3.27618 22.7238ZM3.83873 22.9578C3.62767 22.9572 3.42543 22.8731 3.27618 22.7238L3.06405 22.9359C3.26934 23.1412 3.54752 23.2569 3.83783 23.2578L3.83873 22.9578ZM13.2992 22.9578H3.83828V23.2578H13.2992V22.9578ZM13.8613 22.7238C13.7121 22.8731 13.5098 22.9572 13.2988 22.9578L13.2997 23.2578C13.59 23.2569 13.8682 23.1412 14.0734 22.9359L13.8613 22.7238ZM14.0953 22.1613C14.0947 22.3723 14.0106 22.5746 13.8613 22.7238L14.0734 22.9359C14.2787 22.7307 14.3944 22.4525 14.3953 22.1622L14.0953 22.1613ZM14.0953 20.6574V22.1617H14.3953V20.6574H14.0953ZM2.89219 20.8074H14.2453V20.5074H2.89219V20.8074ZM3.04219 7.89538C3.04276 7.78025 3.06797 7.66657 3.11613 7.562L2.84364 7.43651C2.77757 7.57998 2.74298 7.73593 2.74219 7.89388L3.04219 7.89538ZM3.04219 18.7652V7.89463H2.74219V18.7652H3.04219ZM14.2453 18.6152H2.89219V18.9152H14.2453V18.6152ZM14.0953 7.89463V18.7652H14.3953V7.89463H14.0953ZM14.0214 7.562C14.0695 7.66657 14.0947 7.78025 14.0953 7.89538L14.3953 7.89388C14.3945 7.73593 14.3599 7.57998 14.2939 7.43651L14.0214 7.562ZM13.8161 7.28909C13.9032 7.36437 13.9732 7.45742 14.0214 7.562L14.2939 7.43651C14.2278 7.29304 14.1318 7.16537 14.0123 7.0621L13.8161 7.28909ZM9.08617 3.24027L13.8166 7.28955L14.0117 7.06164L9.28125 3.01236L9.08617 3.24027ZM8.56875 3.04928C8.7585 3.04928 8.94201 3.11703 9.08624 3.24033L9.28118 3.0123C9.08262 2.84255 8.82998 2.74928 8.56875 2.74928V3.04928ZM8.05126 3.24033C8.19549 3.11703 8.379 3.04928 8.56875 3.04928V2.74928C8.30752 2.74928 8.05488 2.84255 7.85632 3.0123L8.05126 3.24033ZM3.32086 7.28955L8.05133 3.24027L7.85624 3.01236L3.12578 7.06164L3.32086 7.28955ZM3.11613 7.562C3.16429 7.45742 3.23428 7.36437 3.32139 7.28909L3.12525 7.0621C3.00573 7.16537 2.90971 7.29304 2.84364 7.43651L3.11613 7.562ZM16.1375 4.16567H20.868V3.86567H16.1375V4.16567ZM15.3624 3.84463C15.568 4.05019 15.8468 4.16567 16.1375 4.16567V3.86567C15.9264 3.86567 15.7239 3.7818 15.5746 3.6325L15.3624 3.84463ZM15.0414 3.06958C15.0414 3.36028 15.1569 3.63908 15.3624 3.84463L15.5746 3.6325C15.4253 3.48321 15.3414 3.28072 15.3414 3.06958H15.0414ZM15.3624 2.29452C15.1569 2.50008 15.0414 2.77888 15.0414 3.06958H15.3414C15.3414 2.85844 15.4253 2.65595 15.5746 2.50666L15.3624 2.29452ZM16.1375 1.97349C15.8468 1.97349 15.568 2.08897 15.3624 2.29452L15.5746 2.50666C15.7239 2.35736 15.9264 2.27349 16.1375 2.27349V1.97349ZM20.868 1.97349H16.1375V2.27349H20.868V1.97349ZM21.643 2.29452C21.4375 2.08897 21.1587 1.97349 20.868 1.97349V2.27349C21.0791 2.27349 21.2816 2.35736 21.4309 2.50666L21.643 2.29452ZM21.9641 3.06958C21.9641 2.77888 21.8486 2.50008 21.643 2.29453L21.4309 2.50666C21.5802 2.65595 21.6641 2.85844 21.6641 3.06958H21.9641ZM21.643 3.84463C21.8486 3.63908 21.9641 3.36028 21.9641 3.06958H21.6641C21.6641 3.28072 21.5802 3.48321 21.4309 3.6325L21.643 3.84463ZM20.868 4.16567C21.1587 4.16567 21.4375 4.05019 21.643 3.84463L21.4309 3.6325C21.2816 3.7818 21.0791 3.86567 20.868 3.86567V4.16567ZM7.07522 6.68092C7.51731 6.38553 8.03706 6.22786 8.56875 6.22786V5.92786C7.97773 5.92786 7.39997 6.10312 6.90855 6.43148L7.07522 6.68092ZM6.0851 7.88738C6.28857 7.39616 6.63314 6.97631 7.07522 6.68092L6.90855 6.43148C6.41713 6.75983 6.03411 7.22654 5.80794 7.77258L6.0851 7.88738ZM5.93212 9.4406C5.8284 8.91912 5.88163 8.3786 6.0851 7.88738L5.80794 7.77258C5.58176 8.31861 5.52259 8.91946 5.63789 9.49913L5.93212 9.4406ZM6.66785 10.817C6.29189 10.4411 6.03585 9.96208 5.93212 9.4406L5.63789 9.49913C5.75319 10.0788 6.0378 10.6113 6.45572 11.0292L6.66785 10.817ZM8.04429 11.5528C7.52282 11.449 7.04381 11.193 6.66785 10.817L6.45572 11.0292C6.87364 11.4471 7.4061 11.7317 7.98577 11.847L8.04429 11.5528ZM9.59751 11.3998C9.10629 11.6033 8.56577 11.6565 8.04429 11.5528L7.98577 11.847C8.56544 11.9623 9.16628 11.9031 9.71232 11.677L9.59751 11.3998ZM10.804 10.4097C10.5086 10.8518 10.0887 11.1963 9.59751 11.3998L9.71232 11.677C10.2584 11.4508 10.7251 11.0678 11.0534 10.5763L10.804 10.4097ZM11.257 8.91614C11.257 9.44783 11.0994 9.96759 10.804 10.4097L11.0534 10.5763C11.3818 10.0849 11.557 9.50717 11.557 8.91614H11.257ZM10.4672 7.01766C10.971 7.52145 11.255 8.20413 11.257 8.91658L11.557 8.9157C11.5547 8.12399 11.2392 7.36536 10.6794 6.80553L10.4672 7.01766ZM8.56831 6.22786C9.28077 6.22994 9.96345 6.51388 10.4672 7.01766L10.6794 6.80553C10.1195 6.2457 9.3609 5.93017 8.56919 5.92786L8.56831 6.22786ZM7.95979 9.82751C8.14005 9.94795 8.35196 10.0122 8.56875 10.0122V9.71224C8.4113 9.71224 8.25738 9.66555 8.12646 9.57807L7.95979 9.82751ZM7.55609 9.3356C7.63905 9.53588 7.77954 9.70707 7.95979 9.82751L8.12646 9.57807C7.99555 9.49059 7.89351 9.36626 7.83326 9.22079L7.55609 9.3356ZM7.49372 8.70231C7.45143 8.91493 7.47313 9.13531 7.55609 9.3356L7.83326 9.22079C7.773 9.07533 7.75724 8.91526 7.78795 8.76083L7.49372 8.70231ZM7.7937 8.14109C7.6404 8.29438 7.53601 8.48968 7.49372 8.70231L7.78795 8.76083C7.81867 8.60641 7.89449 8.46455 8.00583 8.35322L7.7937 8.14109ZM8.35491 7.84111C8.14229 7.8834 7.94699 7.98779 7.7937 8.14109L8.00583 8.35322C8.11716 8.24188 8.25901 8.16606 8.41344 8.13535L8.35491 7.84111ZM8.98821 7.90348C8.78792 7.82052 8.56753 7.79882 8.35491 7.84111L8.41344 8.13535C8.56787 8.10463 8.72794 8.12039 8.8734 8.18065L8.98821 7.90348ZM9.48012 8.30719C9.35968 8.12693 9.18849 7.98644 8.98821 7.90348L8.8734 8.18065C9.01887 8.2409 9.1432 8.34294 9.23068 8.47386L9.48012 8.30719ZM9.66484 8.91614C9.66484 8.69936 9.60056 8.48744 9.48012 8.30719L9.23068 8.47386C9.31815 8.60477 9.36484 8.75869 9.36484 8.91614H9.66484ZM9.34298 9.69037C9.54827 9.48508 9.66398 9.20691 9.66484 8.91659L9.36484 8.91569C9.36421 9.12676 9.28009 9.32899 9.13085 9.47824L9.34298 9.69037ZM8.5692 10.0122C8.85952 10.0114 9.13769 9.89566 9.34298 9.69037L9.13085 9.47824C8.9816 9.62748 8.77937 9.71161 8.5683 9.71224L8.5692 10.0122Z" fill="#515878"/>
</svg>
