<svg width="20" height="22" viewBox="0 0 20 22" fill="none" xmlns="http://www.w3.org/2000/svg">
<path d="M18.9308 13.7254L18.2679 13.2589C17.1629 12.4978 16.4754 11.2946 16.3527 9.96875L16.1071 7.41518C15.8371 4.54241 13.6518 2.28348 10.8772 1.89062V0.883929C10.8772 0.392857 10.4844 0 9.9933 0C9.50223 0 9.10937 0.392857 9.10937 0.883929V1.91518C6.31027 2.30804 4.125 4.54241 3.87946 7.43973L3.63393 9.9933C3.51116 11.3192 2.82366 12.5223 1.71875 13.2835L1.0558 13.75C0.392857 14.2165 0 14.9777 0 15.7879V16.721C0 17.5804 0.6875 18.2679 1.54688 18.2679H5.94196C6.11384 20.3549 7.85714 22 9.9933 22C12.1295 22 13.8728 20.3549 14.0446 18.2679H18.4397C19.2991 18.2679 19.9866 17.5804 19.9866 16.721V15.7879C19.9866 14.9531 19.5937 14.192 18.9308 13.7254ZM9.9933 20.2321C8.83929 20.2321 7.8817 19.3728 7.70982 18.2679H12.3013C12.1295 19.3728 11.1473 20.2321 9.9933 20.2321ZM18.2433 16.5H1.7433V15.7634C1.7433 15.5179 1.86607 15.2969 2.0625 15.1741L2.72545 14.7076C4.24777 13.6518 5.20536 11.9821 5.37723 10.1406L5.62277 7.58705C5.84375 5.30357 7.70982 3.60937 9.9933 3.60937C12.2768 3.60937 14.1674 5.32812 14.3638 7.58705L14.6094 10.1406C14.7812 11.9821 15.7388 13.6518 17.2612 14.7076L17.9241 15.1741C18.1205 15.2969 18.2433 15.5179 18.2433 15.7634V16.5Z" fill="#515878"/>
</svg>
