<svg width="24" height="24" viewBox="0 0 24 24" fill="none" xmlns="http://www.w3.org/2000/svg">
<path d="M16.8 21.675H16.875V21.6V9.6V3.6C16.875 2.89584 16.3042 2.325 15.6 2.325H3.6C2.89584 2.325 2.325 2.89584 2.325 3.6V20.4C2.325 21.1042 2.89584 21.675 3.6 21.675H16.8ZM19.125 6.20485V6.3109L19.225 6.27556C19.5924 6.1457 19.9879 6.075 20.4 6.075C22.3468 6.075 23.925 7.6532 23.925 9.6V20.4C23.925 22.3468 22.3468 23.925 20.4 23.925H19.2H3.6C1.6532 23.925 0.075 22.3468 0.075 20.4V3.6C0.075 1.6532 1.6532 0.075 3.6 0.075H15.6C17.5468 0.075 19.125 1.6532 19.125 3.6V6.20485ZM19.125 21.6V21.675H19.2H20.4C21.1042 21.675 21.675 21.1042 21.675 20.4V9.6C21.675 8.89584 21.1042 8.325 20.4 8.325C19.6958 8.325 19.125 8.89584 19.125 9.6V21.6ZM6 8.325C5.37868 8.325 4.875 7.82132 4.875 7.2C4.875 6.57868 5.37868 6.075 6 6.075H13.5414C14.1627 6.075 14.6664 6.57868 14.6664 7.2C14.6664 7.82132 14.1627 8.325 13.5414 8.325H6ZM6 13.125C5.37868 13.125 4.875 12.6213 4.875 12C4.875 11.3787 5.37868 10.875 6 10.875H13.5414C14.1627 10.875 14.6664 11.3787 14.6664 12C14.6664 12.6213 14.1627 13.125 13.5414 13.125H6ZM6 17.925C5.37868 17.925 4.875 17.4213 4.875 16.8C4.875 16.1787 5.37868 15.675 6 15.675H9.6C10.2213 15.675 10.725 16.1787 10.725 16.8C10.725 17.4213 10.2213 17.925 9.6 17.925H6Z" fill="#515878" stroke="#06113E" stroke-width="0.15"/>
</svg>
