<svg width="35" height="42" viewBox="0 0 35 42" fill="none" xmlns="http://www.w3.org/2000/svg">
<path d="M32.5658 9.62832L24.4432 1.50569C23.9659 1.02645 23.3984 0.646619 22.7733 0.388174C22.1483 0.12973 21.4782 -0.00219741 20.8019 2.76839e-05H7.13207C5.24053 2.76839e-05 3.42646 0.75144 2.08894 2.08896C0.751413 3.42649 0 5.24056 0 7.1321V34.8679C0 35.8045 0.184476 36.732 0.542896 37.5973C0.901316 38.4626 1.42666 39.2488 2.08894 39.9111C2.75121 40.5733 3.53744 41.0987 4.40275 41.4571C5.26805 41.8155 6.19547 42 7.13207 42H26.9434C27.88 42 28.8074 41.8155 29.6727 41.4571C30.538 41.0987 31.3242 40.5733 31.9865 39.9111C32.6488 39.2488 33.1741 38.4626 33.5326 37.5973C33.891 36.732 34.0755 35.8045 34.0755 34.8679V13.2736C34.0776 12.5963 33.9452 11.9254 33.6861 11.2996C33.4269 10.6739 33.0462 10.1058 32.5658 9.62832ZM31.6981 34.8679C31.6981 36.129 31.1972 37.3383 30.3055 38.23C29.4138 39.1217 28.2044 39.6226 26.9434 39.6226H7.13207C5.87104 39.6226 4.66166 39.1217 3.76998 38.23C2.8783 37.3383 2.37736 36.129 2.37736 34.8679V7.1321C2.37736 5.87107 2.8783 4.66169 3.76998 3.77001C4.66166 2.87833 5.87104 2.37738 7.13207 2.37738H20.8019C21.537 2.3797 22.2417 2.67153 22.7632 3.18965L30.8858 11.3123C31.1434 11.5699 31.3477 11.8756 31.487 12.2122C31.6264 12.5487 31.6981 12.9094 31.6981 13.2736V34.8679ZM17.9134 16.2176C17.7549 16.0588 17.5547 15.9481 17.3359 15.8983C17.1171 15.8485 16.8888 15.8617 16.6772 15.9362L12.0849 17.5568C11.9102 17.6187 11.7523 17.7207 11.624 17.8545C11.4957 17.9883 11.4005 18.1503 11.3459 18.3275L7.58179 30.5253C7.5699 30.561 7.58179 30.5986 7.58179 30.6343C7.55174 30.7736 7.54771 30.9174 7.5699 31.0582C7.57617 31.1144 7.58677 31.1701 7.6016 31.2246C7.65222 31.4039 7.74532 31.5684 7.87301 31.7041V31.7179C7.98603 31.8305 8.12086 31.9188 8.26924 31.9775C8.41194 32.0361 8.56469 32.0664 8.71896 32.0666H8.74867C8.85668 32.0656 8.96403 32.0496 9.06764 32.0191L21.2674 28.2549C21.4448 28.2002 21.6069 28.1046 21.7408 27.976C21.8746 27.8473 21.9764 27.6891 22.0381 27.514L23.6567 22.9277C23.7312 22.716 23.7444 22.4877 23.6946 22.2689C23.6448 22.0501 23.5341 21.8499 23.3754 21.6914L17.9134 16.2176ZM19.9956 26.151L12.9526 28.3302L16.3919 24.891C16.6119 24.6676 16.7348 24.3662 16.7337 24.0527C16.7326 23.7391 16.6077 23.4386 16.3861 23.2168C16.1645 22.9949 15.8642 22.8696 15.5506 22.8681C15.237 22.8667 14.9355 22.9892 14.7119 23.209L11.2707 26.6462L13.4499 19.5994L16.7663 18.4285L21.1723 22.8326L19.9956 26.151ZM26.1965 18.8663C26.3084 18.9763 26.3974 19.1074 26.4585 19.2519C26.5195 19.3965 26.5513 19.5517 26.552 19.7086C26.5527 19.8655 26.5224 20.021 26.4627 20.1662C26.403 20.3113 26.3152 20.4432 26.2043 20.5542C26.0935 20.6652 25.9617 20.7532 25.8166 20.813C25.6716 20.8728 25.5161 20.9034 25.3592 20.9028C25.2023 20.9023 25.047 20.8707 24.9024 20.8098C24.7578 20.749 24.6266 20.6601 24.5165 20.5483L19.0525 15.0804C18.8325 14.857 18.7096 14.5557 18.7107 14.2421C18.7118 13.9285 18.8367 13.6281 19.0583 13.4062C19.28 13.1843 19.5803 13.059 19.8938 13.0576C20.2074 13.0561 20.5089 13.1786 20.7325 13.3984L26.1965 18.8663Z" fill="#4253FF"/>
</svg>
