<svg width="24" height="22" viewBox="0 0 24 22" fill="none" xmlns="http://www.w3.org/2000/svg">
<path d="M21.692 19.6157C21.5168 19.6157 21.3444 19.6157 21.1693 19.6157C20.6965 19.6157 20.2238 19.6157 19.7483 19.6157C19.0476 19.6157 18.3496 19.6157 17.6489 19.6157C16.7952 19.6157 15.9443 19.6157 15.0907 19.6157C14.1564 19.6157 13.2248 19.6157 12.2905 19.6157C11.3507 19.6157 10.408 19.6157 9.46813 19.6157C8.59221 19.6157 7.71629 19.6157 6.84316 19.6157C6.10628 19.6157 5.36939 19.6157 4.63251 19.6157C4.10696 19.6157 3.58141 19.6157 3.05586 19.6157C2.81394 19.6157 2.5748 19.6157 2.33288 19.6157C2.27449 19.6157 2.21609 19.6129 2.1577 19.6073C2.25502 19.6212 2.35513 19.6351 2.45245 19.6462C2.34123 19.6296 2.23556 19.6018 2.13267 19.5573C2.22166 19.5934 2.31064 19.6323 2.39962 19.6685C2.31064 19.6296 2.22722 19.5795 2.14936 19.5211C2.22444 19.5795 2.29952 19.6379 2.37459 19.6963C2.28839 19.6296 2.21331 19.5545 2.14658 19.4683C2.20497 19.5434 2.26337 19.6184 2.32176 19.6935C2.26337 19.6157 2.21609 19.5322 2.17438 19.4433C2.21053 19.5322 2.24946 19.6212 2.28561 19.7102C2.2439 19.6073 2.21331 19.5017 2.19663 19.3904C2.21053 19.4878 2.22444 19.5879 2.23556 19.6852C2.21331 19.4933 2.22722 19.2931 2.22722 19.0985C2.22722 18.6869 2.22722 18.2754 2.22722 17.8638C2.22722 16.4818 2.22722 15.1026 2.22722 13.7206C2.22722 12.0494 2.22722 10.3782 2.22722 8.70425C2.22722 7.26385 2.22722 5.82345 2.22722 4.38028C2.22722 3.69623 2.22444 3.0094 2.22722 2.32535C2.22722 2.26696 2.23 2.21134 2.23556 2.15295C2.22166 2.25027 2.20775 2.35038 2.19663 2.4477C2.21331 2.33647 2.24112 2.23081 2.28561 2.12792C2.24946 2.2169 2.21053 2.30588 2.17438 2.39487C2.21331 2.30588 2.26337 2.22246 2.32176 2.1446C2.26337 2.21968 2.20497 2.29476 2.14658 2.36984C2.21331 2.28364 2.28839 2.20856 2.37459 2.14182C2.29952 2.20022 2.22444 2.25861 2.14936 2.31701C2.22722 2.25861 2.31064 2.21134 2.39962 2.16963C2.31064 2.20578 2.22166 2.24471 2.13267 2.28086C2.23556 2.23915 2.34123 2.20856 2.45245 2.19188C2.35513 2.20578 2.25502 2.21968 2.1577 2.23081C2.36903 2.20578 2.58593 2.22246 2.79726 2.22246C3.26441 2.22246 3.73157 2.22246 4.19872 2.22246C4.8939 2.22246 5.58629 2.22246 6.28146 2.22246C7.13513 2.22246 7.9888 2.22246 8.84247 2.22246C9.77956 2.22246 10.7167 2.22246 11.6537 2.22246C12.5992 2.22246 13.5446 2.22246 14.49 2.22246C15.366 2.22246 16.2447 2.22246 17.1206 2.22246C17.863 2.22246 18.6055 2.22246 19.3479 2.22246C19.879 2.22246 20.4074 2.22246 20.9385 2.22246C21.1804 2.22246 21.4251 2.22246 21.667 2.22246C21.7254 2.22246 21.7838 2.22524 21.8422 2.23081C21.7449 2.2169 21.6448 2.203 21.5474 2.19188C21.6587 2.20856 21.7643 2.23637 21.8672 2.28086C21.7782 2.24471 21.6892 2.20578 21.6003 2.16963C21.6892 2.20856 21.7727 2.25861 21.8505 2.31701C21.7755 2.25861 21.7004 2.20022 21.6253 2.14182C21.7115 2.20856 21.7866 2.28364 21.8533 2.36984C21.7949 2.29476 21.7365 2.21968 21.6781 2.1446C21.7365 2.22246 21.7838 2.30588 21.8255 2.39487C21.7894 2.30588 21.7504 2.2169 21.7143 2.12792C21.756 2.23081 21.7866 2.33647 21.8033 2.4477C21.7894 2.35038 21.7754 2.25027 21.7643 2.15295C21.7866 2.34481 21.7727 2.54502 21.7727 2.73967C21.7727 3.15121 21.7727 3.56276 21.7727 3.9743C21.7727 5.3563 21.7727 6.73552 21.7727 8.11752C21.7727 9.78871 21.7727 11.4599 21.7727 13.1339C21.7727 14.5743 21.7727 16.0147 21.7727 17.4578C21.7727 18.1419 21.7755 18.8287 21.7727 19.5128C21.7727 19.5712 21.7699 19.6268 21.7643 19.6852C21.7782 19.5879 21.7921 19.4878 21.8033 19.3904C21.7866 19.5017 21.7588 19.6073 21.7143 19.7102C21.7504 19.6212 21.7894 19.5322 21.8255 19.4433C21.7866 19.5322 21.7365 19.6157 21.6781 19.6935C21.7365 19.6184 21.7949 19.5434 21.8533 19.4683C21.7866 19.5545 21.7115 19.6296 21.6253 19.6963C21.7004 19.6379 21.7755 19.5795 21.8505 19.5211C21.7727 19.5795 21.6892 19.6268 21.6003 19.6685C21.6892 19.6323 21.7782 19.5934 21.8672 19.5573C21.7643 19.599 21.6587 19.6296 21.5474 19.6462C21.6448 19.6323 21.7449 19.6184 21.8422 19.6073C21.7921 19.6129 21.7421 19.6157 21.692 19.6157C21.4028 19.6212 21.1109 19.7352 20.9051 19.941C20.7132 20.1329 20.5659 20.4499 20.5798 20.7279C20.6076 21.323 21.0692 21.8513 21.692 21.8402C22.2788 21.8319 22.7987 21.615 23.2437 21.2368C23.5912 20.9393 23.8693 20.4693 23.9444 20.0189C23.9805 19.8159 24 19.6212 24 19.4155C24 19.0706 24 18.7231 24 18.3783C24 17.7498 24 17.1186 24 16.4902C24 15.6671 24 14.8468 24 14.0237C24 13.1005 24 12.1773 24 11.2541C24 10.3198 24 9.38552 24 8.4512C24 7.59475 24 6.73552 24 5.87907C24 5.1978 24 4.51653 24 3.83248C24 3.4126 24 2.99271 24 2.57561C24 2.49219 24 2.40877 24 2.32813C23.9972 1.59681 23.6635 0.929445 23.0879 0.484535C22.6736 0.164756 22.1786 0.00347588 21.6531 0.000695193C21.5613 0.000695193 21.4724 0.000695193 21.3806 0.000695193C20.9746 0.000695193 20.5659 0.000695193 20.1599 0.000695193C19.512 0.000695193 18.8641 0.000695193 18.2134 0.000695193C17.3959 0.000695193 16.5783 0.000695193 15.7608 0.000695193C14.846 0.000695193 13.9311 0.000695193 13.0135 0.000695193C12.0736 0.000695193 11.131 0.000695193 10.1911 0.000695193C9.29572 0.000695193 8.40034 0.000695193 7.50496 0.000695193C6.72915 0.000695193 5.95056 0.000695193 5.17475 0.000695193C4.58802 0.000695193 4.0013 0.000695193 3.41457 0.000695193C3.08923 0.000695193 2.76111 0.000695193 2.43577 0.000695193C2.36903 0.000695193 2.3023 -0.00208554 2.23556 0.00347584C1.65718 0.0396248 1.13163 0.253738 0.706181 0.654157C0.280736 1.05458 0.0749651 1.58847 0.01379 2.15851C-0.0112362 2.38374 0.00544783 2.61732 0.00544783 2.84534C0.00544783 3.34864 0.00544783 3.85473 0.00544783 4.35803C0.00544783 5.09769 0.00544783 5.84014 0.00544783 6.5798C0.00544783 7.46684 0.00544783 8.3511 0.00544783 9.23814C0.00544783 10.178 0.00544783 11.1179 0.00544783 12.0578C0.00544783 12.9615 0.00544783 13.8652 0.00544783 14.7689C0.00544783 15.5447 0.00544783 16.3205 0.00544783 17.0991C0.00544783 17.6581 0.00544783 18.2142 0.00544783 18.7731C0.00544783 19.0206 0.00266714 19.2709 0.00544783 19.5183C0.0137899 20.322 0.408648 21.0116 1.05933 21.4676C1.43194 21.729 1.90744 21.8402 2.35791 21.843C2.62207 21.843 2.88624 21.843 3.15041 21.843C3.69264 21.843 4.23765 21.843 4.77989 21.843C5.52511 21.843 6.27034 21.843 7.01556 21.843C7.89426 21.843 8.77017 21.843 9.64887 21.843C10.586 21.843 11.5258 21.843 12.4629 21.843C13.3889 21.843 14.3149 21.843 15.2408 21.843C16.0834 21.843 16.9259 21.843 17.7685 21.843C18.4553 21.843 19.1421 21.843 19.8317 21.843C20.2906 21.843 20.7522 21.843 21.211 21.843C21.3723 21.843 21.5335 21.843 21.6948 21.843C22.276 21.843 22.8349 21.3313 22.8071 20.7307C22.7765 20.1245 22.3149 19.6157 21.692 19.6157Z" fill="#515878"/>
<path d="M7.83051 16.7127C7.83051 16.0509 7.83051 15.3891 7.83051 14.7301C7.83051 13.6818 7.83051 12.6334 7.83051 11.5851C7.83051 11.3432 7.83051 11.1013 7.83051 10.8594C7.83051 10.2782 7.31886 9.71928 6.71823 9.74709C6.11482 9.7749 5.60596 10.2365 5.60596 10.8594C5.60596 11.5212 5.60596 12.183 5.60596 12.842C5.60596 13.8903 5.60596 14.9386 5.60596 15.987C5.60596 16.2289 5.60596 16.4708 5.60596 16.7127C5.60596 17.2939 6.1176 17.8528 6.71823 17.825C7.32164 17.7972 7.83051 17.3356 7.83051 16.7127Z" fill="#515878"/>
<path d="M13.1135 16.7124C13.1135 16.3287 13.1135 15.9449 13.1135 15.5612C13.1135 14.638 13.1135 13.7176 13.1135 12.7944C13.1135 11.6794 13.1135 10.5643 13.1135 9.44926C13.1135 8.48436 13.1135 7.51946 13.1135 6.55734C13.1135 6.09019 13.1219 5.62025 13.1135 5.15031C13.1135 5.14475 13.1135 5.13641 13.1135 5.13085C13.1135 4.54969 12.6019 3.99077 12.0012 4.01857C11.3978 4.04638 10.889 4.50798 10.889 5.13085C10.889 5.51458 10.889 5.89832 10.889 6.28205C10.889 7.20524 10.889 8.12565 10.889 9.04884C10.889 10.1639 10.889 11.2789 10.889 12.394C10.889 13.3589 10.889 14.3238 10.889 15.2859C10.889 15.7531 10.8806 16.223 10.889 16.6929C10.889 16.6985 10.889 16.7069 10.889 16.7124C10.889 17.2936 11.4006 17.8525 12.0012 17.8247C12.6046 17.7969 13.1135 17.3353 13.1135 16.7124Z" fill="#515878"/>
<path d="M18.3969 16.7135C18.3969 15.7292 18.3969 14.7448 18.3969 13.7604C18.3969 12.1949 18.3969 10.6294 18.3969 9.06387C18.3969 8.70794 18.3969 8.35201 18.3969 7.99608C18.3969 7.41492 17.8853 6.856 17.2846 6.88381C16.6812 6.91162 16.1724 7.37321 16.1724 7.99608C16.1724 8.98045 16.1724 9.96481 16.1724 10.9492C16.1724 12.5147 16.1724 14.0802 16.1724 15.6458C16.1724 16.0017 16.1724 16.3576 16.1724 16.7135C16.1724 17.2947 16.684 17.8536 17.2846 17.8258C17.888 17.798 18.3969 17.3364 18.3969 16.7135Z" fill="#515878"/>
</svg>
