<svg width="35" height="42" viewBox="0 0 35 42" fill="none" xmlns="http://www.w3.org/2000/svg">
<path d="M21.1149 18.3711V17.9372C21.1149 16.8559 20.6853 15.8188 19.9207 15.0542C19.1561 14.2896 18.1191 13.86 17.0377 13.86C15.9564 13.86 14.9193 14.2896 14.1547 15.0542C13.3901 15.8188 12.9606 16.8559 12.9606 17.9372V18.373C12.2543 18.5706 11.6319 18.9933 11.1878 19.5768C10.7437 20.1604 10.5022 20.8729 10.5 21.6062V26.7453C10.5026 27.6377 10.8583 28.4928 11.4893 29.1239C12.1204 29.7549 12.9755 30.1106 13.8679 30.1132H20.2075C21.1 30.1106 21.9551 29.7549 22.5861 29.1239C23.2172 28.4928 23.5728 27.6377 23.5755 26.7453V21.6142C23.5754 20.8791 23.3349 20.1643 22.8906 19.5788C22.4464 18.9932 21.8227 18.5691 21.1149 18.3711ZM15.3379 17.9372C15.3379 17.4864 15.517 17.054 15.8358 16.7352C16.1546 16.4165 16.5869 16.2374 17.0377 16.2374C17.4885 16.2374 17.9209 16.4165 18.2397 16.7352C18.5584 17.054 18.7375 17.4864 18.7375 17.9372V18.2264H15.3379V17.9372ZM21.1981 26.7453C21.1981 27.008 21.0937 27.26 20.908 27.4457C20.7222 27.6315 20.4703 27.7359 20.2075 27.7359H13.8679C13.6052 27.7359 13.3532 27.6315 13.1675 27.4457C12.9817 27.26 12.8773 27.008 12.8773 26.7453V21.6142C12.8773 21.3514 12.9817 21.0995 13.1675 20.9137C13.3532 20.728 13.6052 20.6236 13.8679 20.6236H20.2075C20.4703 20.6236 20.7222 20.728 20.908 20.9137C21.0937 21.0995 21.1981 21.3514 21.1981 21.6142V26.7453ZM32.5658 9.62832L24.4432 1.50569C23.9659 1.02645 23.3984 0.646619 22.7733 0.388174C22.1483 0.12973 21.4782 -0.00219741 20.8019 2.76839e-05H7.13207C5.24053 2.76839e-05 3.42646 0.75144 2.08894 2.08896C0.751413 3.42649 0 5.24056 0 7.1321V34.8679C0 35.8045 0.184476 36.732 0.542896 37.5973C0.901316 38.4626 1.42666 39.2488 2.08894 39.9111C2.75121 40.5733 3.53744 41.0987 4.40275 41.4571C5.26805 41.8155 6.19547 42 7.13207 42H26.9434C27.88 42 28.8074 41.8155 29.6727 41.4571C30.538 41.0987 31.3242 40.5733 31.9865 39.9111C32.6488 39.2488 33.1741 38.4626 33.5326 37.5973C33.891 36.732 34.0755 35.8045 34.0755 34.8679V13.2736C34.0776 12.5963 33.9452 11.9254 33.6861 11.2996C33.4269 10.6739 33.0462 10.1058 32.5658 9.62832ZM31.6981 34.8679C31.6981 36.129 31.1972 37.3383 30.3055 38.23C29.4138 39.1217 28.2044 39.6226 26.9434 39.6226H7.13207C5.87104 39.6226 4.66166 39.1217 3.76998 38.23C2.8783 37.3383 2.37736 36.129 2.37736 34.8679V7.1321C2.37736 5.87107 2.8783 4.66169 3.76998 3.77001C4.66166 2.87833 5.87104 2.37738 7.13207 2.37738H20.8019C21.537 2.3797 22.2417 2.67153 22.7632 3.18965L30.8858 11.3123C31.1434 11.5699 31.3477 11.8756 31.487 12.2122C31.6264 12.5487 31.6981 12.9094 31.6981 13.2736V34.8679Z" fill="#4253FF"/>
</svg>
