<svg width="35" height="42" viewBox="0 0 35 42" fill="none" xmlns="http://www.w3.org/2000/svg">
<path d="M32.5658 9.62832L24.4432 1.50569C23.9659 1.02645 23.3984 0.646619 22.7733 0.388174C22.1483 0.12973 21.4782 -0.00219741 20.8019 2.76839e-05H7.13207C5.24053 2.76839e-05 3.42646 0.75144 2.08894 2.08896C0.751413 3.42649 0 5.24056 0 7.1321V34.8679C0 35.8045 0.184476 36.732 0.542896 37.5973C0.901316 38.4626 1.42666 39.2488 2.08894 39.9111C2.75121 40.5733 3.53744 41.0987 4.40275 41.4571C5.26805 41.8155 6.19547 42 7.13207 42H26.9434C27.88 42 28.8074 41.8155 29.6727 41.4571C30.538 41.0987 31.3242 40.5733 31.9865 39.9111C32.6488 39.2488 33.1741 38.4626 33.5326 37.5973C33.891 36.732 34.0755 35.8045 34.0755 34.8679V13.2736C34.0776 12.5963 33.9452 11.9254 33.6861 11.2996C33.4269 10.6739 33.0462 10.1058 32.5658 9.62832ZM31.6981 34.8679C31.6981 36.129 31.1972 37.3383 30.3055 38.23C29.4138 39.1217 28.2044 39.6226 26.9434 39.6226H7.13207C5.87104 39.6226 4.66166 39.1217 3.76998 38.23C2.8783 37.3383 2.37736 36.129 2.37736 34.8679V7.1321C2.37736 5.87107 2.8783 4.66169 3.76998 3.77001C4.66166 2.87833 5.87104 2.37738 7.13207 2.37738H20.8019C21.537 2.3797 22.2417 2.67153 22.7632 3.18965L30.8858 11.3123C31.1434 11.5699 31.3477 11.8756 31.487 12.2122C31.6264 12.5487 31.6981 12.9094 31.6981 13.2736V34.8679ZM23.8409 15.1557C24.3875 15.7019 24.821 16.3505 25.1168 17.0643C25.4127 17.7782 25.5649 18.5433 25.5649 19.3161C25.5649 20.0888 25.4127 20.8539 25.1168 21.5678C24.821 22.2816 24.3875 22.9302 23.8409 23.4764L16.384 30.9275C16.0668 31.2471 15.6893 31.5005 15.2733 31.6729C14.8574 31.8453 14.4113 31.9334 13.961 31.9319C13.2835 31.9318 12.6212 31.7308 12.0579 31.3543C11.4946 30.9778 11.0556 30.4427 10.7965 29.8167C10.5373 29.1906 10.4696 28.5018 10.602 27.8373C10.7344 27.1728 11.0608 26.5625 11.5401 26.0836L18.6365 18.9852C18.7466 18.8734 18.8778 18.7845 19.0224 18.7237C19.167 18.6628 19.3223 18.6312 19.4792 18.6307C19.6361 18.6302 19.7916 18.6607 19.9366 18.7205C20.0817 18.7804 20.2135 18.8683 20.3243 18.9793C20.4352 19.0904 20.523 19.2222 20.5827 19.3674C20.6424 19.5125 20.6727 19.668 20.672 19.8249C20.6713 19.9818 20.6395 20.137 20.5785 20.2816C20.5174 20.4261 20.4284 20.5572 20.3165 20.6672L13.2201 27.7636C13.0231 27.9614 12.9127 28.2293 12.913 28.5085C12.9146 28.786 13.0255 29.0516 13.2217 29.2478C13.4179 29.444 13.6836 29.555 13.961 29.5565C14.099 29.5566 14.2356 29.5296 14.363 29.4769C14.4905 29.4242 14.6064 29.3469 14.704 29.2494L22.1589 21.7925C22.8156 21.1356 23.1845 20.2448 23.1845 19.3161C23.1845 18.3873 22.8156 17.4965 22.1589 16.8396C21.4912 16.204 20.6045 15.8495 19.6825 15.8495C18.7606 15.8495 17.8739 16.204 17.2061 16.8396L10.6149 23.4229C10.5061 23.5397 10.3748 23.6334 10.229 23.6984C10.0832 23.7633 9.92582 23.7983 9.76622 23.8011C9.60661 23.8039 9.44808 23.7745 9.30007 23.7148C9.15205 23.655 9.0176 23.566 8.90473 23.4531C8.79185 23.3402 8.70287 23.2058 8.64308 23.0578C8.5833 22.9098 8.55394 22.7512 8.55676 22.5916C8.55957 22.432 8.59451 22.2746 8.65947 22.1288C8.72444 21.983 8.81811 21.8518 8.9349 21.7429L15.5202 15.1557C16.641 14.0856 18.131 13.4885 19.6806 13.4885C21.2301 13.4885 22.7202 14.0856 23.8409 15.1557Z" fill="#4253FF"/>
</svg>
