<svg width="18" height="20" viewBox="0 0 18 20" fill="none" xmlns="http://www.w3.org/2000/svg">
<path d="M13.7222 0H3.61111C1.61994 0 0 1.60214 0 3.57143V17.1429H5.77778V20H17.3333V3.57143C17.3333 1.60214 15.7134 0 13.7222 0ZM5.77778 15.7143H1.44444V3.57143C1.44444 2.39 2.41656 1.42857 3.61111 1.42857C4.80567 1.42857 5.77778 2.39 5.77778 3.57143V15.7143ZM15.8889 18.5714H7.22222V3.57143C7.22222 2.76786 6.95211 2.02571 6.49856 1.42857H13.7222C14.9168 1.42857 15.8889 2.39 15.8889 3.57143V18.5714ZM14.4444 5C14.4444 5.39429 14.1216 5.71429 13.7222 5.71429H9.38889C8.99022 5.71429 8.66667 5.39429 8.66667 5C8.66667 4.60571 8.99022 4.28571 9.38889 4.28571H13.7222C14.1216 4.28571 14.4444 4.60571 14.4444 5ZM14.4444 7.85714C14.4444 8.25143 14.1216 8.57143 13.7222 8.57143H9.38889C8.99022 8.57143 8.66667 8.25143 8.66667 7.85714C8.66667 7.46286 8.99022 7.14286 9.38889 7.14286H13.7222C14.1216 7.14286 14.4444 7.46286 14.4444 7.85714ZM14.4444 10.7143C14.4444 11.1093 14.1216 11.4286 13.7222 11.4286H9.38889C8.99022 11.4286 8.66667 11.1093 8.66667 10.7143C8.66667 10.32 8.99022 10 9.38889 10H13.7222C14.1216 10 14.4444 10.32 14.4444 10.7143ZM14.4444 13.5714C14.4444 13.9664 14.1216 14.2857 13.7222 14.2857H9.38889C8.99022 14.2857 8.66667 13.9664 8.66667 13.5714C8.66667 13.1764 8.99022 12.8571 9.38889 12.8571H13.7222C14.1216 12.8571 14.4444 13.1764 14.4444 13.5714ZM14.4444 16.4286C14.4444 16.8236 14.1216 17.1429 13.7222 17.1429H9.38889C8.99022 17.1429 8.66667 16.8236 8.66667 16.4286C8.66667 16.0336 8.99022 15.7143 9.38889 15.7143H13.7222C14.1216 15.7143 14.4444 16.0336 14.4444 16.4286Z" fill="#FF8870"/>
</svg>
