<svg width="195" height="51" viewBox="0 0 195 51" fill="none" xmlns="http://www.w3.org/2000/svg">
<path d="M23.3628 0H0V23.3628C0 36.2611 10.4646 46.7257 23.3628 46.7257C36.2611 46.7257 46.7257 36.2611 46.7257 23.3628C46.7257 10.4646 36.2611 0 23.3628 0ZM23.3628 35.0443C16.9137 35.0443 11.6814 29.812 11.6814 23.3628C11.6814 16.9137 16.9137 11.6814 23.3628 11.6814C29.812 11.6814 35.0443 16.9137 35.0443 23.3628C35.0443 29.812 29.812 35.0443 23.3628 35.0443Z" fill="url(#paint0_linear)"/>
<path d="M135.343 19.4438C128.894 19.4438 123.661 24.6762 123.661 31.1253C123.661 37.5744 128.894 42.8067 135.343 42.8067C141.792 42.8067 147.024 37.5744 147.024 31.1253C147.024 24.6762 141.792 19.4438 135.343 19.4438ZM135.343 36.966C132.098 36.966 129.502 34.3701 129.502 31.1253C129.502 27.8804 132.098 25.2846 135.343 25.2846C138.588 25.2846 141.184 27.8804 141.184 31.1253C141.184 34.3296 138.588 36.966 135.343 36.966Z" fill="white"/>
<path d="M188.396 19.4438V21.0257C186.693 20.0117 184.705 19.4438 182.556 19.4438C176.106 19.4438 170.874 24.6762 170.874 31.1253C170.874 37.5744 176.106 42.8067 182.556 42.8067C184.705 42.8067 186.693 42.2388 188.396 41.2248V42.8067H194.237V19.4438H188.396ZM182.556 36.966C179.311 36.966 176.715 34.3701 176.715 31.1253C176.715 27.8804 179.311 25.2846 182.556 25.2846C185.8 25.2846 188.396 27.8804 188.396 31.1253C188.396 34.3296 185.8 36.966 182.556 36.966Z" fill="white"/>
<path d="M73.4071 19.4442C71.2574 19.4442 69.27 20.012 67.5664 21.026V10.0747L61.7257 14.1308V42.807H67.5664V41.2252C69.27 42.2392 71.2574 42.807 73.4071 42.807C79.8563 42.807 85.0886 37.5747 85.0886 31.1256C85.0886 24.6765 79.8563 19.4442 73.4071 19.4442ZM73.4071 36.9663C70.1623 36.9663 67.5664 34.3704 67.5664 31.1256C67.5664 27.8808 70.1623 25.2849 73.4071 25.2849C76.652 25.2849 79.2478 27.8808 79.2478 31.1256C79.2478 34.3299 76.6114 36.9663 73.4071 36.9663Z" fill="white"/>
<path d="M95.1476 19.4438H89.3069V42.8067H95.1476V19.4438Z" fill="white"/>
<path d="M157.002 10.0747H151.162V42.807H157.002V10.0747Z" fill="white"/>
<path d="M166.737 10.0747H160.896V42.807H166.737V10.0747Z" fill="white"/>
<path d="M94.9196 14.1387C95.5369 12.6486 94.8292 10.9402 93.3391 10.323C91.849 9.70571 90.1406 10.4133 89.5234 11.9034C88.9061 13.3936 89.6138 15.1019 91.1039 15.7192C92.594 16.3364 94.3024 15.6288 94.9196 14.1387Z" fill="white"/>
<path d="M110.074 34.0862L104.233 19.4438H98.3927L106.667 40.1703L102.327 50.9999H108.614L113.927 37.8583L121.756 19.4438H115.915L110.074 34.0862Z" fill="white"/>
<defs>
<linearGradient id="paint0_linear" x1="0" y1="0" x2="47" y2="47" gradientUnits="userSpaceOnUse">
<stop stop-color="#7000FF"/>
<stop offset="1" stop-color="#4253FF"/>
</linearGradient>
</defs>
</svg>
