<svg width="534" height="140" viewBox="0 0 534 140" fill="none" xmlns="http://www.w3.org/2000/svg">
<path d="M64.1332 0H0V64.1332C0 99.5401 28.7263 128.266 64.1332 128.266C99.5401 128.266 128.266 99.5401 128.266 64.1332C128.266 28.7263 99.5401 0 64.1332 0ZM64.1332 96.1999C46.4298 96.1999 32.0666 81.8367 32.0666 64.1332C32.0666 46.4298 46.4298 32.0666 64.1332 32.0666C81.8367 32.0666 96.1999 46.4298 96.1999 64.1332C96.1999 81.8367 81.8367 96.1999 64.1332 96.1999Z" fill="url(#paint0_linear)"/>
<path d="M371.528 53.3755C353.824 53.3755 339.461 67.7387 339.461 85.4421C339.461 103.146 353.824 117.509 371.528 117.509C389.231 117.509 403.594 103.146 403.594 85.4421C403.594 67.7387 389.231 53.3755 371.528 53.3755ZM371.528 101.475C362.62 101.475 355.494 94.3495 355.494 85.4421C355.494 76.5347 362.62 69.4088 371.528 69.4088C380.435 69.4088 387.561 76.5347 387.561 85.4421C387.561 94.2382 380.435 101.475 371.528 101.475Z" fill="#06113E"/>
<path d="M517.164 53.3755V57.7178C512.488 54.9343 507.032 53.3755 501.131 53.3755C483.428 53.3755 469.064 67.7387 469.064 85.4421C469.064 103.146 483.428 117.509 501.131 117.509C507.032 117.509 512.488 115.95 517.164 113.166V117.509H533.198V53.3755H517.164ZM501.131 101.475C492.224 101.475 485.098 94.3495 485.098 85.4421C485.098 76.5347 492.224 69.4088 501.131 69.4088C510.038 69.4088 517.164 76.5347 517.164 85.4421C517.164 94.2382 510.038 101.475 501.131 101.475Z" fill="#06113E"/>
<path d="M201.508 53.3756C195.607 53.3756 190.151 54.9344 185.475 57.718V27.6555L169.441 38.7898V117.509H185.475V113.167C190.151 115.95 195.607 117.509 201.508 117.509C219.211 117.509 233.575 103.146 233.575 85.4422C233.575 67.7388 219.211 53.3756 201.508 53.3756ZM201.508 101.476C192.601 101.476 185.475 94.3496 185.475 85.4422C185.475 76.5348 192.601 69.4089 201.508 69.4089C210.415 69.4089 217.541 76.5348 217.541 85.4422C217.541 94.2383 210.304 101.476 201.508 101.476Z" fill="#06113E"/>
<path d="M261.188 53.3755H245.154V117.509H261.188V53.3755Z" fill="#06113E"/>
<path d="M430.984 27.6555H414.951V117.509H430.984V27.6555Z" fill="#06113E"/>
<path d="M457.705 27.6555H441.672V117.509H457.705V27.6555Z" fill="#06113E"/>
<path d="M260.561 38.8129C262.255 34.7223 260.313 30.0327 256.222 28.3383C252.132 26.6439 247.442 28.5864 245.748 32.6769C244.053 36.7675 245.996 41.4571 250.086 43.1515C254.177 44.8459 258.866 42.9034 260.561 38.8129Z" fill="#06113E"/>
<path d="M302.162 93.5701L286.129 53.3755H270.096L292.81 110.271L280.896 140H298.154L312.74 103.925L334.229 53.3755H318.196L302.162 93.5701Z" fill="#06113E"/>
<defs>
<linearGradient id="paint0_linear" x1="0" y1="0" x2="129.019" y2="129.019" gradientUnits="userSpaceOnUse">
<stop stop-color="#7000FF"/>
<stop offset="1" stop-color="#4253FF"/>
</linearGradient>
</defs>
</svg>
