<svg width="67" height="16" viewBox="0 0 67 16" fill="none" xmlns="http://www.w3.org/2000/svg">
<path d="M8.92595 3.97492C8.62406 3.58246 8.22153 3.25038 7.69825 2.95855C7.17497 2.66672 6.61144 2.52583 5.99759 2.52583C5.45419 2.52583 4.9611 2.63653 4.51832 2.85791C4.07555 3.0793 3.8441 3.45164 3.8441 3.97492C3.8441 4.4982 4.08561 4.86047 4.5787 5.07179C5.07179 5.28312 5.79633 5.50451 6.74226 5.72589C7.24542 5.83659 7.74857 5.98753 8.26179 6.16867C8.775 6.3498 9.2379 6.60138 9.66055 6.90327C10.0832 7.21523 10.4153 7.58756 10.6769 8.05046C10.9386 8.5033 11.0694 9.05677 11.0694 9.71087C11.0694 10.526 10.9184 11.2203 10.6065 11.7839C10.3046 12.3474 9.892 12.8103 9.37879 13.1625C8.86557 13.5147 8.27185 13.7764 7.59762 13.9273C6.9234 14.0883 6.21898 14.1688 5.49444 14.1688C4.45794 14.1688 3.44157 13.9776 2.45539 13.5952C1.46921 13.2128 0.6541 12.6694 0 11.965L2.20381 9.90207C2.57615 10.3851 3.05918 10.7876 3.6529 11.0996C4.24662 11.4115 4.91078 11.5725 5.63532 11.5725C5.87684 11.5725 6.12841 11.5424 6.36993 11.492C6.6215 11.4317 6.85295 11.3512 7.06428 11.2304C7.2756 11.1096 7.44668 10.9486 7.5775 10.7373C7.70832 10.536 7.76869 10.2845 7.76869 9.98258C7.76869 9.42911 7.51712 9.02658 7.0039 8.78507C6.49068 8.54356 5.72589 8.30204 4.69946 8.06053C4.1963 7.94983 3.71328 7.80895 3.24031 7.62782C2.76735 7.44668 2.3447 7.21523 1.97236 6.93346C1.60003 6.64163 1.3082 6.28943 1.07675 5.85671C0.855362 5.43406 0.744668 4.90072 0.744668 4.26675C0.744668 3.52208 0.895614 2.87804 1.20757 2.3447C1.50946 1.80129 1.92205 1.36858 2.4252 1.01637C2.92836 0.674226 3.49189 0.412586 4.12586 0.251577C4.75984 0.0805046 5.40387 0 6.0781 0C7.04415 0 7.99008 0.171072 8.90582 0.503154C9.82156 0.835236 10.5562 1.34845 11.0996 2.03274L8.92595 3.97492Z" fill="white"/>
<path d="M12.1058 7.04405C12.1058 5.98743 12.297 5.02137 12.6794 4.15595C13.0618 3.29052 13.575 2.55592 14.2291 1.94207C14.8832 1.32822 15.648 0.855255 16.5437 0.523174C17.4393 0.191092 18.3852 0.0200195 19.3915 0.0200195C20.3978 0.0200195 21.3437 0.191092 22.2394 0.523174C23.135 0.855255 23.8998 1.32822 24.5539 1.94207C25.208 2.55592 25.7212 3.29052 26.1036 4.15595C26.486 5.02137 26.6772 5.97736 26.6772 7.04405C26.6772 8.10067 26.486 9.06673 26.1036 9.94222C25.7212 10.8177 25.208 11.5624 24.5539 12.1863C23.8998 12.8102 23.135 13.2932 22.2394 13.6454C21.3437 13.9976 20.3978 14.1788 19.3915 14.1788C18.3852 14.1788 17.4393 13.9976 16.5437 13.6454C15.648 13.2932 14.8832 12.8001 14.2291 12.1863C13.575 11.5624 13.0618 10.8177 12.6794 9.94222C12.297 9.06673 12.1058 8.10067 12.1058 7.04405ZM15.5072 7.04405C15.5072 7.56733 15.5877 8.08055 15.7487 8.60383C15.9097 9.12711 16.1411 9.59001 16.4632 10.0026C16.7751 10.4152 17.1776 10.7473 17.6607 11.0089C18.1437 11.2705 18.7173 11.4014 19.3915 11.4014C20.0557 11.4014 20.6393 11.2705 21.1224 11.0089C21.6054 10.7473 22.0079 10.4152 22.3199 10.0026C22.6318 9.59001 22.8733 9.12711 23.0343 8.60383C23.1954 8.08055 23.2759 7.56733 23.2759 7.04405C23.2759 6.52077 23.1954 6.00755 23.0343 5.49434C22.8733 4.98112 22.6419 4.52828 22.3199 4.11569C22.0079 3.70311 21.6054 3.38109 21.1224 3.12951C20.6393 2.87793 20.0657 2.75718 19.3915 2.75718C18.7273 2.75718 18.1437 2.87793 17.6607 3.12951C17.1776 3.38109 16.7751 3.71317 16.4632 4.11569C16.1512 4.52828 15.9097 4.98112 15.7487 5.49434C15.5877 6.00755 15.5072 6.52077 15.5072 7.04405Z" fill="white"/>
<path d="M40.9567 7.04405C40.9567 5.98743 41.1479 5.02137 41.5303 4.15595C41.9127 3.29052 42.4259 2.55592 43.08 1.94207C43.7341 1.32822 44.4989 0.855255 45.3945 0.523174C46.2901 0.191092 47.236 0.0200195 48.2423 0.0200195C49.2486 0.0200195 50.1946 0.191092 51.0902 0.523174C51.9858 0.855255 52.7506 1.32822 53.4047 1.94207C54.0588 2.55592 54.572 3.29052 54.9544 4.15595C55.3368 5.02137 55.528 5.97736 55.528 7.04405C55.528 8.10067 55.3368 9.06673 54.9544 9.94222C54.572 10.8177 54.0588 11.5624 53.4047 12.1863C52.7506 12.8102 51.9858 13.2932 51.0902 13.6454C50.1946 13.9976 49.2486 14.1788 48.2423 14.1788C47.236 14.1788 46.2901 13.9976 45.3945 13.6454C44.4989 13.2932 43.7341 12.8001 43.08 12.1863C42.4259 11.5624 41.9127 10.8177 41.5303 9.94222C41.1479 9.06673 40.9567 8.10067 40.9567 7.04405ZM44.358 7.04405C44.358 7.56733 44.4385 8.08055 44.5995 8.60383C44.7605 9.12711 44.992 9.59001 45.314 10.0026C45.6259 10.4152 46.0285 10.7473 46.5115 11.0089C46.9945 11.2705 47.5681 11.4014 48.2423 11.4014C48.9065 11.4014 49.4902 11.2705 49.9732 11.0089C50.4562 10.7473 50.8587 10.4152 51.1707 10.0026C51.4826 9.59001 51.7242 9.12711 51.8852 8.60383C52.0462 8.08055 52.1267 7.56733 52.1267 7.04405C52.1267 6.52077 52.0462 6.00755 51.8852 5.49434C51.7242 4.98112 51.4927 4.52828 51.1707 4.11569C50.8587 3.70311 50.4562 3.38109 49.9732 3.12951C49.4902 2.87793 48.9166 2.75718 48.2423 2.75718C47.5782 2.75718 46.9945 2.87793 46.5115 3.12951C46.0285 3.38109 45.6259 3.71317 45.314 4.11569C45.002 4.52828 44.7605 4.98112 44.5995 5.49434C44.4385 6.00755 44.358 6.52077 44.358 7.04405Z" fill="white"/>
<path d="M64.7959 3.97492C64.4941 3.58246 64.0915 3.25038 63.5683 2.95855C63.045 2.66672 62.4814 2.52583 61.8676 2.52583C61.3242 2.52583 60.8311 2.63653 60.3883 2.85791C59.9455 3.0793 59.7141 3.45164 59.7141 3.97492C59.7141 4.4982 59.9556 4.86047 60.4487 5.07179C60.9418 5.28312 61.6663 5.50451 62.6123 5.72589C63.1154 5.83659 63.6186 5.98753 64.1318 6.16867C64.645 6.3498 65.1079 6.60138 65.5306 6.90327C65.9532 7.21523 66.2853 7.58756 66.5469 8.05046C66.8086 8.5033 66.9394 9.05677 66.9394 9.71087C66.9394 10.526 66.7884 11.2203 66.4765 11.7839C66.1746 12.3474 65.762 12.8103 65.2488 13.1625C64.7356 13.5147 64.1418 13.7764 63.4676 13.9273C62.7934 14.0883 62.089 14.1688 61.3644 14.1688C60.3279 14.1688 59.3116 13.9776 58.3254 13.5952C57.3392 13.2128 56.5241 12.6694 55.87 11.965L58.0738 9.90207C58.4461 10.3851 58.9292 10.7876 59.5229 11.0996C60.1166 11.4115 60.7808 11.5725 61.5053 11.5725C61.7468 11.5725 61.9883 11.5424 62.2399 11.492C62.4915 11.4317 62.723 11.3512 62.9343 11.2304C63.1456 11.1096 63.3167 10.9486 63.4475 10.7373C63.5783 10.536 63.6387 10.2845 63.6387 9.98258C63.6387 9.42911 63.3871 9.02658 62.8739 8.78507C62.3607 8.54356 61.5959 8.30204 60.5695 8.06053C60.0663 7.94983 59.5833 7.80895 59.1103 7.62782C58.6373 7.44668 58.2147 7.21523 57.8424 6.93346C57.47 6.64163 57.1681 6.28943 56.9467 5.85671C56.7254 5.43406 56.6147 4.90072 56.6147 4.26675C56.6147 3.52208 56.7656 2.87804 57.0776 2.3447C57.3795 1.80129 57.792 1.36858 58.2952 1.01637C58.7983 0.674226 59.3619 0.412586 59.9959 0.251577C60.6298 0.0805046 61.2739 0 61.9481 0C62.9141 0 63.8601 0.171072 64.7758 0.503154C65.6916 0.835236 66.4262 1.34845 66.9696 2.03274L64.7959 3.97492Z" fill="white"/>
<path d="M32.1514 12.81L33.7716 16L41.822 0.00976562H38.1088L32.1414 12.7999L32.1514 12.81Z" fill="#14B9F1"/>
<path d="M32.3492 7.342L29.5252 0.00976562H25.822L30.6888 10.8842L32.3492 7.342Z" fill="white"/>
</svg>
