<svg width="16" height="22" viewBox="0 0 16 22" fill="none" xmlns="http://www.w3.org/2000/svg">
<path d="M15.3176 0.0530005C15.2085 0.00467055 15.0877 -0.0109303 14.9699 0.00809424C14.8521 0.0271188 14.7424 0.0799494 14.6541 0.160165L13.2621 1.42643L11.8711 0.160165C11.7577 0.0572208 11.6101 0.000187034 11.457 0.000187034C11.3039 0.000187034 11.1562 0.0572208 11.0429 0.160165L9.64893 1.42643L8.25866 0.160165C8.14539 0.0575665 7.99802 0.000745611 7.8452 0.000745611C7.69237 0.000745611 7.545 0.0575665 7.43173 0.160165L6.03982 1.42561L4.64668 0.160165C4.53331 0.0571054 4.3856 4.50357e-07 4.23239 4.50357e-07C4.07918 4.50357e-07 3.93147 0.0571054 3.8181 0.160165L2.42496 1.42684L1.03018 0.160165C0.941862 0.0798796 0.832121 0.0269851 0.714301 0.00791372C0.596481 -0.0111576 0.475657 0.004416 0.366524 0.0527409C0.257391 0.101066 0.16465 0.18006 0.0995796 0.280116C0.0345096 0.380172 -8.59249e-05 0.49698 1.60266e-07 0.616334V21.3833C-6.32564e-06 21.5026 0.034647 21.6194 0.099748 21.7194C0.164849 21.8194 0.257594 21.8983 0.366712 21.9466C0.475829 21.9948 0.59662 22.0104 0.714402 21.9913C0.832185 21.9722 0.941888 21.9193 1.03018 21.8391L2.42619 20.5728L3.81851 21.8395C3.93188 21.9425 4.07959 21.9996 4.2328 21.9996C4.38601 21.9996 4.53372 21.9425 4.64709 21.8395L6.03859 20.574L7.43173 21.8395C7.5451 21.9425 7.69281 21.9996 7.84602 21.9996C7.99923 21.9996 8.14694 21.9425 8.26031 21.8395L9.65222 20.574L11.0449 21.8395C11.1583 21.9424 11.3059 21.9994 11.459 21.9994C11.6121 21.9994 11.7598 21.9424 11.8731 21.8395L13.265 20.574L14.6541 21.8395C14.7423 21.9198 14.852 21.9728 14.9698 21.992C15.0876 22.0112 15.2085 21.9957 15.3177 21.9475C15.4268 21.8992 15.5197 21.8203 15.5848 21.7203C15.65 21.6203 15.6846 21.5035 15.6846 21.3841V0.616334C15.6846 0.496963 15.6499 0.380169 15.5848 0.280157C15.5196 0.180145 15.4268 0.101226 15.3176 0.0530005ZM14.4529 19.9918L13.6777 19.2868C13.5643 19.1836 13.4165 19.1265 13.2632 19.1265C13.1099 19.1265 12.9621 19.1836 12.8487 19.2868L11.4555 20.5506L10.0632 19.2852C9.94987 19.1822 9.80225 19.1252 9.64914 19.1252C9.49602 19.1252 9.34839 19.1822 9.23505 19.2852L7.84273 20.5506L6.45082 19.2852C6.33748 19.1822 6.18986 19.1252 6.03674 19.1252C5.88363 19.1252 5.736 19.1822 5.62266 19.2852L4.23075 20.5506L2.8372 19.2848C2.72385 19.1818 2.57623 19.1248 2.42311 19.1248C2.27 19.1248 2.12237 19.1818 2.00903 19.2848L1.23178 19.9918V2.00783L2.0119 2.71487C2.12525 2.81782 2.27287 2.87485 2.42599 2.87485C2.5791 2.87485 2.72673 2.81782 2.84007 2.71487L4.23362 1.44902L5.62553 2.71446C5.73887 2.81741 5.8865 2.87444 6.03961 2.87444C6.19273 2.87444 6.34035 2.81741 6.4537 2.71446L7.84561 1.44902L9.23834 2.71446C9.35168 2.81741 9.4993 2.87444 9.65242 2.87444C9.80553 2.87444 9.95316 2.81741 10.0665 2.71446L11.4555 1.44902L12.847 2.71446C12.9604 2.81764 13.1082 2.87481 13.2615 2.87481C13.4148 2.87481 13.5626 2.81764 13.676 2.71446L14.4529 2.00783V19.9918ZM12.0657 5.70317C12.0657 5.86651 12.0008 6.02316 11.8853 6.13867C11.7698 6.25417 11.6131 6.31906 11.4498 6.31906H4.23485C4.07151 6.31906 3.91486 6.25417 3.79935 6.13867C3.68385 6.02316 3.61896 5.86651 3.61896 5.70317C3.61896 5.53982 3.68385 5.38317 3.79935 5.26767C3.91486 5.15217 4.07151 5.08728 4.23485 5.08728H11.4498C11.6131 5.08728 11.7698 5.15217 11.8853 5.26767C12.0008 5.38317 12.0657 5.53982 12.0657 5.70317ZM12.0657 8.44675C12.0657 8.61009 12.0008 8.76675 11.8853 8.88225C11.7698 8.99775 11.6131 9.06264 11.4498 9.06264H4.23485C4.07151 9.06264 3.91486 8.99775 3.79935 8.88225C3.68385 8.76675 3.61896 8.61009 3.61896 8.44675C3.61896 8.2834 3.68385 8.12675 3.79935 8.01125C3.91486 7.89575 4.07151 7.83086 4.23485 7.83086H11.4498C11.5307 7.83086 11.6108 7.8468 11.6856 7.87778C11.7603 7.90876 11.8282 7.95416 11.8854 8.01139C11.9426 8.06863 11.988 8.13657 12.0189 8.21134C12.0498 8.28611 12.0657 8.36624 12.0657 8.44716V8.44675ZM10.1006 15.2219C10.1 15.6477 9.93068 16.0558 9.62965 16.3568C9.32861 16.6579 8.92048 16.8272 8.49475 16.8278H8.45369V17.2733C8.45369 17.4366 8.38881 17.5933 8.2733 17.7088C8.1578 17.8243 8.00115 17.8891 7.8378 17.8891C7.67446 17.8891 7.51781 17.8243 7.40231 17.7088C7.2868 17.5933 7.22192 17.4366 7.22192 17.2733V16.8278H6.70046C6.53712 16.8278 6.38047 16.7629 6.26496 16.6474C6.14946 16.5319 6.08457 16.3752 6.08457 16.2119C6.08457 16.0485 6.14946 15.8919 6.26496 15.7764C6.38047 15.6609 6.53712 15.596 6.70046 15.596H8.49311C8.59231 15.596 8.68746 15.5566 8.7576 15.4864C8.82775 15.4163 8.86716 15.3211 8.86716 15.2219C8.86716 15.1227 8.82775 15.0276 8.7576 14.9574C8.68746 14.8873 8.59231 14.8479 8.49311 14.8479H7.18537C6.75948 14.8479 6.35103 14.6787 6.04988 14.3776C5.74873 14.0764 5.57955 13.668 5.57955 13.2421C5.57955 12.8162 5.74873 12.4077 6.04988 12.1066C6.35103 11.8054 6.75948 11.6362 7.18537 11.6362H7.22643V11.1907C7.22643 11.0274 7.29132 10.8707 7.40682 10.7552C7.52232 10.6397 7.67898 10.5749 7.84232 10.5749C8.00567 10.5749 8.16232 10.6397 8.27782 10.7552C8.39332 10.8707 8.45821 11.0274 8.45821 11.1907V11.6362H8.97966C9.14301 11.6362 9.29966 11.7011 9.41516 11.8166C9.53066 11.9321 9.59555 12.0888 9.59555 12.2521C9.59555 12.4155 9.53066 12.5721 9.41516 12.6876C9.29966 12.8031 9.14301 12.868 8.97966 12.868H7.18537C7.08617 12.868 6.99103 12.9074 6.92088 12.9776C6.85073 13.0477 6.81132 13.1429 6.81132 13.2421C6.81132 13.3413 6.85073 13.4364 6.92088 13.5066C6.99103 13.5767 7.08617 13.6161 7.18537 13.6161H8.4964C8.92187 13.617 9.32964 13.7865 9.63035 14.0875C9.93105 14.3885 10.1001 14.7965 10.1006 15.2219Z" fill="#7000FF"/>
</svg>
