<svg width="20" height="20" viewBox="0 0 20 20" fill="none" xmlns="http://www.w3.org/2000/svg">
<path fill-rule="evenodd" clip-rule="evenodd" d="M19.375 0H0.625C0.28 0 0 0.28 0 0.625V11.875C0 12.22 0.28 12.5 0.625 12.5H19.375C19.72 12.5 20 12.22 20 11.875V0.625C20 0.28 19.72 0 19.375 0ZM1.25 11.25V1.25H18.75V11.25H1.25ZM16.875 5.625H15.625V6.875H16.875V5.625ZM3.125 5.625H4.375V6.875H3.125V5.625ZM10 10C12.0681 10 13.75 8.31812 13.75 6.25C13.75 4.18188 12.0681 2.5 10 2.5C7.93188 2.5 6.25 4.18188 6.25 6.25C6.25 8.31812 7.93188 10 10 10ZM10 3.75C11.3787 3.75 12.5 4.87125 12.5 6.25C12.5 7.62875 11.3787 8.75 10 8.75C8.62125 8.75 7.5 7.62875 7.5 6.25C7.5 4.87125 8.62125 3.75 10 3.75ZM0 15V13.75H20V15H0ZM0 16.25V17.5H20V16.25H0ZM0 20V18.75H20V20H0Z" fill="#7ED320"/>
</svg>
