<svg width="32" height="32" viewBox="0 0 32 32" fill="none" xmlns="http://www.w3.org/2000/svg">
<path d="M28 0H4C1.75 0 0 1.8125 0 4V22C0 24.25 1.75 26 4 26H10V31.25C10 31.75 10.3125 32 10.75 32C10.875 32 11 32 11.1875 31.875L19 26H28C30.1875 26 32 24.25 32 22V4C32 1.8125 30.1875 0 28 0ZM30 22C30 23.125 29.0625 24 28 24H18.3125L17.75 24.4375L12 28.75V24H4C2.875 24 2 23.125 2 22V4C2 2.9375 2.875 2 4 2H28C29.0625 2 30 2.9375 30 4V22ZM21.5625 8.4375C21.4375 8.3125 21.3125 8.3125 21.1875 8.3125C21.0625 8.3125 20.9375 8.3125 20.8125 8.4375L14.125 15.125L11.125 12.125C11 12 10.875 12 10.75 12C10.625 12 10.5 12 10.375 12.125L9.6875 12.8125C9.5 13 9.5 13.3125 9.6875 13.5L13.75 17.625C13.875 17.75 14 17.75 14.125 17.75C14.25 17.75 14.375 17.6875 14.5 17.625L22.25 9.8125C22.4375 9.625 22.4375 9.3125 22.25 9.125L21.5625 8.4375Z" fill="#DCDDE5"/>
</svg>
