<svg width="30" height="30" viewBox="0 0 30 30" fill="none" xmlns="http://www.w3.org/2000/svg">
<path d="M15 30C23.2863 30 30 23.2863 30 15C30 6.71371 23.2863 0 15 0C6.71371 0 0 6.71371 0 15C0 23.2863 6.71371 30 15 30ZM1.93548 15C1.93548 7.8629 7.74194 1.93548 15 1.93548C22.1371 1.93548 28.0645 7.80242 28.0645 15C28.0645 22.1976 22.1976 28.0645 15 28.0645C7.80242 28.0645 1.93548 22.2581 1.93548 15ZM21.9556 13.9113L11.3105 7.43952C10.3427 6.95565 9.19355 7.62097 9.19355 8.70968V21.2903C9.19355 22.4395 10.3427 23.1048 11.3105 22.5605L21.9556 16.4516C22.9839 15.9073 22.9839 14.5161 21.9556 13.9113ZM11.129 19.8387V10.2218C11.129 9.97984 11.4315 9.79839 11.6734 9.91935L19.7782 14.879C20.0202 15 20.0202 15.3629 19.7782 15.4839L11.6734 20.1411C11.4315 20.3226 11.129 20.1411 11.129 19.8387Z" fill="#DCDDE5"/>
</svg>
