<svg width="30" height="30" viewBox="0 0 30 30" fill="none" xmlns="http://www.w3.org/2000/svg">
<path d="M29.75 21.0508V3.1875C29.75 1.46094 28.2891 0 26.5625 0H3.1875C1.39453 0 0 1.46094 0 3.1875V26.5625C0 28.3555 1.39453 29.75 3.1875 29.75H20.9844C21.7148 29.75 22.7109 29.3516 23.2422 28.8203L28.7539 23.3086C29.2852 22.7773 29.75 21.7812 29.75 21.0508ZM21.7148 27.3594C21.582 27.4922 21.3828 27.5586 21.25 27.625V21.25H27.5586C27.4922 21.4492 27.4258 21.6484 27.293 21.7812L21.7148 27.3594ZM27.625 3.1875V19.125H20.7188C19.7891 19.125 19.125 19.8555 19.125 20.7188V27.625H3.1875C2.58984 27.625 2.125 27.1602 2.125 26.5625V3.1875C2.125 2.65625 2.58984 2.125 3.1875 2.125H26.5625C27.0938 2.125 27.625 2.65625 27.625 3.1875Z" fill="#DCDDE5"/>
</svg>
