<svg width="34" height="27" viewBox="0 0 34 27" fill="none" xmlns="http://www.w3.org/2000/svg">
<path d="M31.1667 0H2.83333C1.23958 0 0 1.29861 0 2.83333V23.6111C0 25.2049 1.23958 26.4444 2.83333 26.4444H31.1667C32.7014 26.4444 34 25.2049 34 23.6111V2.83333C34 1.29861 32.7014 0 31.1667 0ZM32.1111 23.6111C32.1111 24.1424 31.6389 24.5556 31.1667 24.5556H2.83333C2.30208 24.5556 1.88889 24.1424 1.88889 23.6111V2.83333C1.88889 2.36111 2.30208 1.88889 2.83333 1.88889H31.1667C31.6389 1.88889 32.1111 2.36111 32.1111 2.83333V23.6111ZM11.3333 19.5972C11.3333 19.2431 10.9792 18.8889 10.625 18.8889H6.375C5.96181 18.8889 5.66667 19.2431 5.66667 19.5972V20.0694C5.66667 20.4826 5.96181 20.7778 6.375 20.7778H10.625C10.9792 20.7778 11.3333 20.4826 11.3333 20.0694V19.5972ZM22.6667 19.5972C22.6667 19.2431 22.3125 18.8889 21.9583 18.8889H13.9306C13.5174 18.8889 13.2222 19.2431 13.2222 19.5972V20.0694C13.2222 20.4826 13.5174 20.7778 13.9306 20.7778H21.9583C22.3125 20.7778 22.6667 20.4826 22.6667 20.0694V19.5972Z" fill="#DCDDE5"/>
</svg>
