<?xml version="1.0" standalone="no"?>
<!DOCTYPE svg PUBLIC "-//W3C//DTD SVG 20010904//EN"
 "http://www.w3.org/TR/2001/REC-SVG-20010904/DTD/svg10.dtd">
<svg version="1.0" xmlns="http://www.w3.org/2000/svg"
 width="187.000000pt" height="187.000000pt" viewBox="0 0 187.000000 187.000000"
 preserveAspectRatio="xMidYMid meet">
<metadata>
Created by potrace 1.11, written by Peter Selinger 2001-2013
</metadata>
<g transform="translate(0.000000,187.000000) scale(0.100000,-0.100000)"
fill="#000000" stroke="none">
<path d="M2 1323 c4 -531 5 -550 27 -623 12 -41 31 -94 41 -117 11 -24 20 -46
20 -51 0 -17 121 -190 166 -238 172 -180 400 -281 649 -289 411 -13 762 226
910 620 38 101 54 209 50 345 -4 116 -7 133 -37 235 -86 294 -329 536 -626
625 -119 35 -178 39 -695 39 l-508 1 3 -547z m998 73 c89 -9 207 -68 270 -135
113 -118 158 -304 112 -457 -102 -336 -519 -445 -771 -203 -230 222 -170 608
118 754 47 24 87 35 146 42 28 3 52 7 53 9 2 1 9 1 15 -1 7 -2 32 -6 57 -9z"/>
</g>
</svg>
