<svg width="151" height="47" viewBox="0 0 151 47" fill="none" xmlns="http://www.w3.org/2000/svg">
<path d="M44.2716 2.35199L42.3516 15.696H47.3916L50.9916 2.35199H44.2716Z" fill="#06113E"/>
<path d="M76.7829 18.576C78.8949 16.896 79.9509 14.64 79.9509 11.856C79.9509 9.11999 78.9429 6.86399 76.9749 5.08799C75.0069 3.31199 72.6069 2.39999 69.7269 2.39999H56.4789V36H70.7349C73.6629 36 76.1589 35.088 78.1749 33.264C80.1909 31.44 81.1989 29.088 81.1989 26.256C81.1989 22.848 79.7109 20.256 76.7829 18.576ZM69.7269 8.59199C71.8389 8.59199 73.3269 10.176 73.3269 12.288C73.3269 14.4 71.7909 15.984 69.7269 15.984H63.1029V8.59199H69.7269ZM63.1029 29.808V21.888H70.7349C72.9909 21.888 74.6229 23.568 74.6229 25.824C74.6229 28.128 72.9909 29.808 70.7349 29.808H63.1029Z" fill="#06113E"/>
<path d="M91.4454 36V0.959991H85.2534V36H91.4454Z" fill="#06113E"/>
<path d="M117.561 33.024C120.009 30.576 121.257 27.552 121.257 24C121.257 20.448 120.009 17.472 117.561 15.024C115.113 12.576 112.089 11.328 108.537 11.328C104.985 11.328 101.961 12.576 99.5128 15.024C97.0648 17.472 95.8648 20.448 95.8648 24C95.8648 27.552 97.0648 30.576 99.5128 33.024C101.961 35.472 104.985 36.672 108.537 36.672C112.089 36.672 115.113 35.472 117.561 33.024ZM103.881 28.752C102.681 27.504 102.057 25.92 102.057 24C102.057 22.08 102.681 20.496 103.881 19.248C105.129 18 106.665 17.376 108.537 17.376C110.409 17.376 111.945 18 113.193 19.248C114.441 20.496 115.065 22.08 115.065 24C115.065 25.92 114.441 27.504 113.193 28.752C111.945 30 110.409 30.624 108.537 30.624C106.665 30.624 105.129 30 103.881 28.752Z" fill="#06113E"/>
<path d="M143.997 14.976C142.173 12.528 139.629 11.328 136.317 11.328C132.957 11.328 130.125 12.528 127.821 14.928C125.517 17.328 124.365 20.208 124.365 23.616C124.365 27.024 125.517 29.952 127.773 32.352C130.077 34.704 132.909 35.904 136.317 35.904C139.629 35.904 142.173 34.704 143.997 32.256V34.848C143.997 38.64 141.597 40.752 137.709 40.752C134.733 40.752 132.621 39.648 131.421 37.392L126.141 40.416C128.253 44.256 132.333 46.272 137.517 46.272C140.973 46.272 143.901 45.312 146.349 43.344C148.797 41.376 150.045 38.544 150.045 34.848V12H143.997V14.976ZM143.997 23.616C143.997 27.456 141.165 30.192 137.277 30.192C133.389 30.192 130.557 27.456 130.557 23.616C130.557 21.744 131.181 20.16 132.429 18.96C133.725 17.712 135.309 17.088 137.277 17.088C139.245 17.088 140.829 17.712 142.077 18.96C143.373 20.16 143.997 21.744 143.997 23.616Z" fill="#06113E"/>
<path d="M11.6814 12.2384C9.53172 12.2384 7.54425 12.8062 5.84071 13.8202V2.8689L0 6.92495V35.6012H5.84071V34.0194C7.54425 35.0334 9.53172 35.6012 11.6814 35.6012C18.1305 35.6012 23.3629 30.3689 23.3629 23.9198C23.3629 17.4707 18.1305 12.2384 11.6814 12.2384ZM11.6814 29.7605C8.43659 29.7605 5.84071 27.1646 5.84071 23.9198C5.84071 20.675 8.43659 18.0791 11.6814 18.0791C14.9263 18.0791 17.5221 20.675 17.5221 23.9198C17.5221 27.1241 14.8857 29.7605 11.6814 29.7605Z" fill="#4253FF"/>
<path d="M33.4227 12.2383H27.582V35.6012H33.4227V12.2383Z" fill="#4253FF"/>
<path d="M33.1935 6.93336C33.8108 5.44324 33.1032 3.73487 31.613 3.11763C30.1229 2.50038 28.4146 3.208 27.7973 4.69812C27.1801 6.18825 27.8877 7.89662 29.3778 8.51386C30.8679 9.13111 32.5763 8.42349 33.1935 6.93336Z" fill="#4253FF"/>
</svg>
