<svg width="28" height="34" viewBox="0 0 28 34" fill="none" xmlns="http://www.w3.org/2000/svg">
<path d="M26.3628 7.79596L19.7873 1.22049C19.4011 0.832314 18.9417 0.524583 18.4357 0.315094C17.9297 0.105604 17.3872 -0.00148704 16.8396 1.55962e-05H5.77358C4.24233 1.55962e-05 2.7738 0.608302 1.69104 1.69106C0.608287 2.77382 0 4.24235 0 5.7736V28.2264C0 28.9846 0.149338 29.7354 0.439488 30.4359C0.729637 31.1364 1.15492 31.7728 1.69104 32.309C2.22717 32.8451 2.86364 33.2704 3.56413 33.5605C4.26461 33.8507 5.01538 34 5.77358 34H21.8113C22.5695 34 23.3203 33.8507 24.0208 33.5605C24.7212 33.2704 25.3577 32.8451 25.8938 32.309C26.43 31.7728 26.8553 31.1364 27.1454 30.4359C27.4356 29.7354 27.5849 28.9846 27.5849 28.2264V10.7453C27.5865 10.1973 27.4793 9.6544 27.2695 9.14812C27.0597 8.64184 26.7515 8.18224 26.3628 7.79596ZM25.6604 28.2264C25.6604 29.2472 25.2548 30.2263 24.533 30.9481C23.8112 31.6699 22.8321 32.0755 21.8113 32.0755H5.77358C4.75275 32.0755 3.77373 31.6699 3.05189 30.9481C2.33005 30.2263 1.92453 29.2472 1.92453 28.2264V5.7736C1.92453 4.75276 2.33005 3.77374 3.05189 3.0519C3.77373 2.33007 4.75275 1.92454 5.77358 1.92454H16.8396C17.1345 1.92452 17.4265 1.98258 17.6989 2.0954C17.9713 2.20822 18.2188 2.3736 18.4273 2.58209L25.0028 9.15756C25.4223 9.57975 25.6585 10.1502 25.6604 10.7453V28.2264ZM8.26264 15.6576V18.3279H6.95877C6.70356 18.3279 6.45881 18.4293 6.27835 18.6098C6.09789 18.7902 5.99651 19.035 5.99651 19.2902C5.99651 19.5454 6.09789 19.7902 6.27835 19.9706C6.45881 20.1511 6.70356 20.2525 6.95877 20.2525H8.26264V21.1137C8.26264 21.3689 8.36402 21.6136 8.54448 21.7941C8.72494 21.9746 8.96969 22.0759 9.2249 22.0759C9.48011 22.0759 9.72486 21.9746 9.90532 21.7941C10.0858 21.6136 10.1872 21.3689 10.1872 21.1137V20.2476C11.0371 20.2288 11.8458 19.8779 12.4402 19.2702C13.0346 18.6624 13.3674 17.8461 13.3674 16.996C13.3674 16.1459 13.0346 15.3296 12.4402 14.7218C11.8458 14.1141 11.0371 13.7632 10.1872 13.7443V11.066H11.5616C11.8168 11.066 12.0616 10.9647 12.242 10.7842C12.4225 10.6037 12.5239 10.359 12.5239 10.1038C12.5239 9.84858 12.4225 9.60382 12.242 9.42336C12.0616 9.2429 11.8168 9.14152 11.5616 9.14152H10.1872V8.2803C10.1872 8.02509 10.0858 7.78033 9.90532 7.59987C9.72486 7.41941 9.48011 7.31803 9.2249 7.31803C8.96969 7.31803 8.72494 7.41941 8.54448 7.59987C8.36402 7.78033 8.26264 8.02509 8.26264 8.2803V9.14152C7.41191 9.16041 6.60238 9.51162 6.00739 10.12C5.4124 10.7283 5.07923 11.5454 5.07923 12.3964C5.07923 13.2473 5.4124 14.0644 6.00739 14.6728C6.60238 15.2811 7.41191 15.6323 8.26264 15.6512V15.6576ZM10.1872 15.6705C10.5385 15.6705 10.8754 15.81 11.1239 16.0585C11.3723 16.3069 11.5119 16.6439 11.5119 16.9952C11.5119 17.3465 11.3723 17.6835 11.1239 17.9319C10.8754 18.1803 10.5385 18.3199 10.1872 18.3199V15.6705ZM8.26264 11.066V13.7299C7.91045 13.7299 7.57269 13.59 7.32365 13.341C7.07462 13.0919 6.93471 12.7542 6.93471 12.402C6.93471 12.0498 7.07462 11.712 7.32365 11.463C7.57269 11.214 7.91045 11.0741 8.26264 11.0741V11.066ZM15.9207 17.5629C15.9207 17.3077 16.022 17.063 16.2025 16.8825C16.383 16.702 16.6277 16.6007 16.8829 16.6007H20.5411C20.6675 16.6007 20.7926 16.6256 20.9094 16.6739C21.0261 16.7223 21.1322 16.7932 21.2215 16.8825C21.3109 16.9719 21.3818 17.0779 21.4301 17.1947C21.4785 17.3114 21.5034 17.4366 21.5034 17.5629C21.5034 17.6893 21.4785 17.8144 21.4301 17.9312C21.3818 18.0479 21.3109 18.154 21.2215 18.2434C21.1322 18.3327 21.0261 18.4036 20.9094 18.4519C20.7926 18.5003 20.6675 18.5252 20.5411 18.5252H16.8829C16.6288 18.5252 16.385 18.4247 16.2048 18.2456C16.0245 18.0666 15.9223 17.8234 15.9207 17.5693V17.5629ZM15.9207 11.8166C15.9207 11.5614 16.022 11.3166 16.2025 11.1362C16.383 10.9557 16.6277 10.8544 16.8829 10.8544H20.5411C20.7963 10.8544 21.0411 10.9557 21.2215 11.1362C21.402 11.3166 21.5034 11.5614 21.5034 11.8166C21.5034 12.0718 21.402 12.3166 21.2215 12.497C21.0411 12.6775 20.7963 12.7789 20.5411 12.7789H16.8829C16.6288 12.7789 16.385 12.6784 16.2048 12.4993C16.0245 12.3202 15.9223 12.0771 15.9207 11.823V11.8166ZM22.1192 25.7117C22.1192 25.8381 22.0943 25.9632 22.046 26.0799C21.9976 26.1967 21.9267 26.3028 21.8374 26.3921C21.748 26.4815 21.642 26.5524 21.5252 26.6007C21.4085 26.6491 21.2833 26.674 21.157 26.674H6.42792C6.17271 26.674 5.92796 26.5726 5.7475 26.3921C5.56704 26.2117 5.46566 25.9669 5.46566 25.7117C5.46566 25.4565 5.56704 25.2117 5.7475 25.0313C5.92796 24.8508 6.17271 24.7494 6.42792 24.7494H21.1586C21.2855 24.7496 21.4111 24.775 21.5282 24.8239C21.6453 24.8729 21.7515 24.9445 21.8408 25.0347C21.9301 25.1249 22.0007 25.2318 22.0485 25.3494C22.0962 25.467 22.1203 25.5928 22.1192 25.7197V25.7117Z" fill="#DCDDE5"/>
</svg>
