<svg width="35" height="34" viewBox="0 0 35 34" fill="none" xmlns="http://www.w3.org/2000/svg">
<path d="M27.5448 28.2264C27.5448 28.9846 27.3955 29.7354 27.1053 30.4359C26.8152 31.1364 26.3899 31.7728 25.8538 32.309C25.3176 32.8451 24.6812 33.2704 23.9807 33.5605C23.2802 33.8507 22.5294 34 21.7712 34H5.77358C5.01539 34 4.26461 33.8507 3.56413 33.5605C2.86365 33.2704 2.22717 32.8451 1.69104 32.309C1.15492 31.7728 0.729638 31.1364 0.439488 30.4359C0.149338 29.7354 0 28.9846 0 28.2264V5.77358C0 4.24233 0.608287 2.7738 1.69104 1.69104C2.7738 0.608287 4.24233 0 5.77358 0H16.8252C17.9294 0.00335363 18.9876 0.442555 19.7697 1.22208L26.3324 7.79755C26.7202 8.18401 27.0276 8.64349 27.2368 9.14944C27.446 9.6554 27.5529 10.1978 27.5512 10.7453V14.5943C27.5512 14.8495 27.4498 15.0943 27.2694 15.2748C27.0889 15.4552 26.8442 15.5566 26.589 15.5566C26.3338 15.5566 26.089 15.4552 25.9085 15.2748C25.7281 15.0943 25.6267 14.8495 25.6267 14.5943V10.7453C25.6251 10.1504 25.3895 9.5801 24.9708 9.15755L18.4081 2.58208C17.9882 2.16219 17.419 1.92576 16.8252 1.92453H5.77358C4.75275 1.92453 3.77373 2.33005 3.05189 3.05189C2.33005 3.77373 1.92453 4.75275 1.92453 5.77358V28.2264C1.92453 29.2472 2.33005 30.2263 3.05189 30.9481C3.77373 31.6699 4.75275 32.0755 5.77358 32.0755H21.7857C22.2911 32.0755 22.7916 31.9759 23.2586 31.7825C23.7256 31.589 24.1499 31.3055 24.5074 30.9481C24.8648 30.5907 25.1483 30.1664 25.3417 29.6994C25.5352 29.2324 25.6347 28.7319 25.6347 28.2264C25.6347 27.9712 25.7361 27.7264 25.9166 27.546C26.097 27.3655 26.3418 27.2641 26.597 27.2641C26.8522 27.2641 27.0969 27.3655 27.2774 27.546C27.4579 27.7264 27.5592 27.9712 27.5592 28.2264H27.5448ZM33.7225 20.8362L30.2295 17.2999C30.1406 17.21 30.0349 17.1384 29.9184 17.0894C29.8019 17.0403 29.6768 17.0146 29.5504 17.0139C29.4239 17.0132 29.2986 17.0373 29.1815 17.085C29.0644 17.1327 28.9579 17.203 28.8679 17.2919C28.778 17.3808 28.7064 17.4865 28.6574 17.603C28.6083 17.7195 28.5827 17.8446 28.5819 17.971C28.5812 18.0975 28.6053 18.2228 28.653 18.3399C28.7007 18.457 28.771 18.5636 28.8599 18.6535L30.7155 20.5283H23.4295C23.3032 20.5283 23.178 20.5532 23.0613 20.6015C22.9445 20.6499 22.8385 20.7208 22.7491 20.8101C22.6597 20.8995 22.5889 21.0056 22.5405 21.1223C22.4922 21.2391 22.4673 21.3642 22.4673 21.4906C22.4673 21.6169 22.4922 21.7421 22.5405 21.8588C22.5889 21.9756 22.6597 22.0816 22.7491 22.171C22.8385 22.2603 22.9445 22.3312 23.0613 22.3796C23.178 22.4279 23.3032 22.4528 23.4295 22.4528H30.7363L28.8679 24.3308C28.6876 24.5116 28.5864 24.7566 28.5867 25.012C28.587 25.2673 28.6888 25.5121 28.8695 25.6925C29.0503 25.8728 29.2953 25.9739 29.5507 25.9736C29.806 25.9733 30.0508 25.8716 30.2311 25.6908L33.7241 22.1914C33.9027 22.011 34.0027 21.7673 34.0024 21.5135C34.0021 21.2597 33.9015 21.0162 33.7225 20.8362ZM17.5084 10.0236H7.90179C7.77543 10.0236 7.6503 10.0485 7.53355 10.0968C7.4168 10.1452 7.31072 10.2161 7.22137 10.3054C7.13201 10.3948 7.06113 10.5009 7.01278 10.6176C6.96442 10.7344 6.93953 10.8595 6.93953 10.9858C6.93953 11.1122 6.96442 11.2373 7.01278 11.3541C7.06113 11.4708 7.13201 11.5769 7.22137 11.6663C7.31072 11.7556 7.4168 11.8265 7.53355 11.8749C7.6503 11.9232 7.77543 11.9481 7.90179 11.9481H17.51C17.7652 11.9481 18.01 11.8467 18.1904 11.6663C18.3709 11.4858 18.4723 11.2411 18.4723 10.9858C18.4723 10.7306 18.3709 10.4859 18.1904 10.3054C18.01 10.125 17.7652 10.0236 17.51 10.0236H17.5084ZM17.5084 16.0377H7.90179C7.64658 16.0377 7.40183 16.1391 7.22137 16.3196C7.04091 16.5 6.93953 16.7448 6.93953 17C6.93953 17.2552 7.04091 17.5 7.22137 17.6804C7.40183 17.8609 7.64658 17.9623 7.90179 17.9623H17.51C17.7652 17.9623 18.01 17.8609 18.1904 17.6804C18.3709 17.5 18.4723 17.2552 18.4723 17C18.4723 16.7448 18.3709 16.5 18.1904 16.3196C18.01 16.1391 17.7652 16.0377 17.51 16.0377H17.5084ZM17.5084 22.0519H7.90179C7.64658 22.0519 7.40183 22.1533 7.22137 22.3337C7.04091 22.5142 6.93953 22.7589 6.93953 23.0142C6.93953 23.2694 7.04091 23.5141 7.22137 23.6946C7.40183 23.875 7.64658 23.9764 7.90179 23.9764H17.51C17.7652 23.9764 18.01 23.875 18.1904 23.6946C18.3709 23.5141 18.4723 23.2694 18.4723 23.0142C18.4723 22.7589 18.3709 22.5142 18.1904 22.3337C18.01 22.1533 17.7652 22.0519 17.51 22.0519H17.5084Z" fill="#DCDDE5"/>
</svg>
